<svg id="facebook" xmlns="http://www.w3.org/2000/svg" width="30" height="30" viewBox="0 0 30 30">
  <path id="Path_1275" data-name="Path 1275" d="M26.25,0H3.75A3.754,3.754,0,0,0,0,3.75v22.5A3.754,3.754,0,0,0,3.75,30h22.5A3.754,3.754,0,0,0,30,26.25V3.75A3.754,3.754,0,0,0,26.25,0Z" fill="#1c1b20"/>
  <path id="Path_1276" data-name="Path 1276" d="M20.063,12.375H15.375V8.625c0-1.035.84-.937,1.875-.937h1.875V3h-3.75A5.625,5.625,0,0,0,9.75,8.625v3.75H6v4.688H9.75V27.375h5.625V17.063h2.813Z" transform="translate(5.25 2.625)" fill="#c8fb51" fill-rule="evenodd"/>
</svg>
