<svg xmlns="http://www.w3.org/2000/svg" width="30" height="29.93" viewBox="0 0 30 29.93">
  <g id="Group_796" data-name="Group 796" transform="translate(-19741.567 -10396)">
    <path id="linkedin" d="M25.4,29.93H5.116A4.858,4.858,0,0,1,.258,25.082V4.847A4.858,4.858,0,0,1,5.116,0H25.4a4.858,4.858,0,0,1,4.857,4.847V25.083A4.857,4.857,0,0,1,25.4,29.93Z" transform="translate(19741.309 10396)" fill="#1c1b20"/>
    <path id="linkedin-2" data-name="linkedin" d="M13.963,27h.006V15H10.234V27h3.728ZM12.1,13.357A2.161,2.161,0,1,0,9.937,11.2,2.159,2.159,0,0,0,12.1,13.357ZM27.937,27V20.42c0-3.234-.7-5.721-4.475-5.721a3.927,3.927,0,0,0-3.532,1.937h-.05V15H16.3V27h3.728V21.06c0-1.567.3-3.082,2.239-3.082,1.909,0,1.938,1.791,1.938,3.183V27h3.728Z" transform="translate(19737.629 10392.948)" fill="#c8fb51"/>
  </g>
</svg>
