<svg xmlns="http://www.w3.org/2000/svg" width="30" height="30" viewBox="0 0 30 30">
  <g id="Group_840" data-name="Group 840" transform="translate(-983 -1076)">
    <rect id="Rectangle_419" data-name="Rectangle 419" width="30" height="30" rx="5" transform="translate(983 1076)" fill="#1c1b20"/>
    <path id="website_1_" data-name="website (1)" d="M9.5.5a9,9,0,1,0,9,9A9.01,9.01,0,0,0,9.5.5Zm3.863,10.816c.05-.6.077-1.207.077-1.816s-.027-1.217-.077-1.816c2.217.483,3.4,1.31,3.4,1.816S15.58,10.833,13.363,11.316ZM9.5,16.758c-.505,0-1.333-1.178-1.816-3.4.6.05,1.207.077,1.816.077s1.217-.027,1.816-.077C10.833,15.58,10.005,16.758,9.5,16.758Zm0-5.06a20.36,20.36,0,0,1-2.091-.107,20.526,20.526,0,0,1,0-4.183,20.526,20.526,0,0,1,4.183,0A20.361,20.361,0,0,1,11.7,9.5a20.36,20.36,0,0,1-.107,2.091A20.359,20.359,0,0,1,9.5,11.7ZM2.242,9.5c0-.505,1.178-1.333,3.4-1.816-.05.6-.077,1.207-.077,1.816s.027,1.217.077,1.816C3.42,10.833,2.242,10.005,2.242,9.5ZM9.5,2.242c.505,0,1.333,1.178,1.816,3.4-.6-.05-1.207-.077-1.816-.077s-1.217.027-1.816.077C8.167,3.42,8.995,2.242,9.5,2.242ZM16.232,6.8a12.538,12.538,0,0,0-3.1-.928,12.538,12.538,0,0,0-.928-3.1A7.291,7.291,0,0,1,16.232,6.8ZM6.8,2.768a12.538,12.538,0,0,0-.928,3.1,12.537,12.537,0,0,0-3.1.928A7.291,7.291,0,0,1,6.8,2.768ZM2.768,12.2a12.536,12.536,0,0,0,3.1.928,12.536,12.536,0,0,0,.928,3.1A7.291,7.291,0,0,1,2.768,12.2ZM12.2,16.232a12.537,12.537,0,0,0,.928-3.1,12.538,12.538,0,0,0,3.1-.928A7.291,7.291,0,0,1,12.2,16.232Z" transform="translate(988.5 1081.5)" fill="#c8fb51"/>
  </g>
</svg>
