<svg id="Layer_2" data-name="Layer 2" xmlns="http://www.w3.org/2000/svg" width="30" height="30" viewBox="0 0 30 30">
  <g id="Layer_1" data-name="Layer 1">
    <rect id="Rectangle_419" data-name="Rectangle 419" width="30" height="30" rx="5" fill="#1c1b20"/>
    <path id="Path_1277" data-name="Path 1277" d="M12.373,19.447a3.722,3.722,0,0,1-3.451-2.58,3.688,3.688,0,0,0,1.6,0,3.711,3.711,0,0,1-2.376-1.776,3.6,3.6,0,0,1-.543-1.98,3.666,3.666,0,0,0,1.652.453A3.733,3.733,0,0,1,7.723,11.3,3.677,3.677,0,0,1,8.142,8.62a10.624,10.624,0,0,0,7.648,3.915.989.989,0,0,0-.057-.407,3.711,3.711,0,0,1,6.313-3.1.192.192,0,0,0,.192.057A7.467,7.467,0,0,0,24.4,8.258a3.8,3.8,0,0,1-1.55,2.014,7.128,7.128,0,0,0,2.07-.554l-.373.554A7.286,7.286,0,0,1,23.2,11.55a.124.124,0,0,0-.057.113,10.284,10.284,0,0,1-.068,1.652,10.929,10.929,0,0,1-.962,3.3,10.68,10.68,0,0,1-2,2.93,9.922,9.922,0,0,1-5.1,2.84,11.076,11.076,0,0,1-2.07.249,10.488,10.488,0,0,1-5.928-1.6l-.091-.057a7.512,7.512,0,0,0,3.688-.532,7.388,7.388,0,0,0,1.765-1.007Z" transform="translate(-0.92 -0.287)" fill="#c8fb51" fill-rule="evenodd"/>
  </g>
</svg>
