<svg xmlns="http://www.w3.org/2000/svg" width="30" height="30" viewBox="0 0 30 30">
  <g id="Group_795" data-name="Group 795" transform="translate(-19609 -10396)">
    <path id="whatsapp_2_" data-name="whatsapp (2)" d="M32,8.825a18.916,18.916,0,0,0-.15-1.935A6.435,6.435,0,0,0,31.3,5.27a5.49,5.49,0,0,0-1.065-1.5,5.865,5.865,0,0,0-1.5-1.065,6.42,6.42,0,0,0-1.62-.54A15.315,15.315,0,0,0,25.19,2H8.825a18.915,18.915,0,0,0-1.935.15A6.435,6.435,0,0,0,5.27,2.7,5.49,5.49,0,0,0,3.77,3.77a5.865,5.865,0,0,0-1.065,1.5,6.42,6.42,0,0,0-.54,1.62A15.315,15.315,0,0,0,2,8.81V25.175a18.915,18.915,0,0,0,.15,1.935,6.435,6.435,0,0,0,.555,1.62,5.49,5.49,0,0,0,1.065,1.5A5.865,5.865,0,0,0,5.27,31.3a6.42,6.42,0,0,0,1.62.54A15.314,15.314,0,0,0,8.81,32H25.175a18.914,18.914,0,0,0,1.935-.15,6.435,6.435,0,0,0,1.62-.555,5.49,5.49,0,0,0,1.5-1.065,5.865,5.865,0,0,0,1.065-1.5,6.42,6.42,0,0,0,.54-1.62A15.315,15.315,0,0,0,32,25.19V8.825Z" transform="translate(19607 10394)" fill="#1c1b20"/>
    <g id="video-call_1_" data-name="video-call (1)" transform="translate(19615 10406.154)">
      <path id="Path_1278" data-name="Path 1278" d="M113.077,301A2.088,2.088,0,0,0,111,303.077v5.538a2.088,2.088,0,0,0,2.077,2.077h9a2.088,2.088,0,0,0,2.077-2.077v-1.264l3.178,2.725a1.038,1.038,0,0,0,1.669-.768v-6.923a1.039,1.039,0,0,0-1.669-.768l-3.178,2.725v-1.264A2.088,2.088,0,0,0,122.077,301Z" transform="translate(-111 -301)" fill="#c8fb51" fill-rule="evenodd"/>
    </g>
  </g>
</svg>
