<svg xmlns="http://www.w3.org/2000/svg" width="19" height="17" viewBox="0 0 19 17">
  <g id="work-deadline" transform="translate(-2.5 -3.5)">
    <path id="Path_1387" data-name="Path 1387" d="M3,8A2,2,0,0,1,5,6H19a2,2,0,0,1,2,2V18a2,2,0,0,1-2,2H5a2,2,0,0,1-2-2ZM8,4V6m8-2V6" fill="none" stroke="#000" stroke-linecap="round" stroke-linejoin="round" stroke-width="1"/>
    <circle id="Ellipse_292" data-name="Ellipse 292" cx="1" cy="1" r="1" transform="translate(9 15)" fill="#1c1b20"/>
    <circle id="Ellipse_293" data-name="Ellipse 293" cx="1" cy="1" r="1" transform="translate(9 12)" fill="#1c1b20"/>
    <circle id="Ellipse_294" data-name="Ellipse 294" cx="1" cy="1" r="1" transform="translate(9 9)" fill="#1c1b20"/>
    <circle id="Ellipse_295" data-name="Ellipse 295" cx="1" cy="1" r="1" transform="translate(12 15)" fill="#1c1b20"/>
    <circle id="Ellipse_296" data-name="Ellipse 296" cx="1" cy="1" r="1" transform="translate(15 15)" fill="#1c1b20"/>
    <circle id="Ellipse_297" data-name="Ellipse 297" cx="1" cy="1" r="1" transform="translate(6 9)" fill="#1c1b20"/>
    <circle id="Ellipse_298" data-name="Ellipse 298" cx="1" cy="1" r="1" transform="translate(6 12)" fill="#1c1b20"/>
    <circle id="Ellipse_299" data-name="Ellipse 299" cx="1" cy="1" r="1" transform="translate(6 15)" fill="#1c1b20"/>
    <path id="Path_1388" data-name="Path 1388" d="M14,11l1.5,1.5L18,10" fill="none" stroke="#000" stroke-linecap="round" stroke-linejoin="round" stroke-width="1"/>
  </g>
</svg>
