<svg xmlns="http://www.w3.org/2000/svg" width="16" height="18.231" viewBox="0 0 16 18.231">
  <path id="calendar_month_FILL0_wght200_GRAD0_opsz24" d="M161.615-831a1.565,1.565,0,0,1-1.153-.463,1.565,1.565,0,0,1-.462-1.153v-12.769a1.565,1.565,0,0,1,.462-1.153,1.565,1.565,0,0,1,1.153-.463h1.769v-2.231h1.077V-847h7.154v-2.231h1V-847h1.769a1.565,1.565,0,0,1,1.153.463,1.565,1.565,0,0,1,.463,1.153v12.769a1.565,1.565,0,0,1-.463,1.153,1.565,1.565,0,0,1-1.153.463Zm0-1h12.769a.588.588,0,0,0,.423-.192.588.588,0,0,0,.192-.423v-8.769H161v8.769a.588.588,0,0,0,.192.423A.588.588,0,0,0,161.615-832ZM161-842.385h14v-3a.588.588,0,0,0-.192-.423.588.588,0,0,0-.423-.192H161.615a.588.588,0,0,0-.423.192.588.588,0,0,0-.192.423Zm0,0v0Zm7,4.539a.738.738,0,0,1-.539-.23.738.738,0,0,1-.23-.539.738.738,0,0,1,.23-.539.739.739,0,0,1,.539-.23.739.739,0,0,1,.539.23.738.738,0,0,1,.23.539.738.738,0,0,1-.23.539A.738.738,0,0,1,168-837.846Zm-4,0a.738.738,0,0,1-.539-.23.738.738,0,0,1-.23-.539.738.738,0,0,1,.23-.539.739.739,0,0,1,.539-.23.739.739,0,0,1,.539.23.738.738,0,0,1,.23.539.738.738,0,0,1-.23.539A.738.738,0,0,1,164-837.846Zm8,0a.738.738,0,0,1-.539-.23.738.738,0,0,1-.23-.539.738.738,0,0,1,.23-.539.739.739,0,0,1,.539-.23.739.739,0,0,1,.539.23.738.738,0,0,1,.23.539.738.738,0,0,1-.23.539A.738.738,0,0,1,172-837.846ZM168-834a.738.738,0,0,1-.539-.23.738.738,0,0,1-.23-.539.739.739,0,0,1,.23-.54.739.739,0,0,1,.539-.23.739.739,0,0,1,.539.23.739.739,0,0,1,.23.54.738.738,0,0,1-.23.539A.738.738,0,0,1,168-834Zm-4,0a.738.738,0,0,1-.539-.23.738.738,0,0,1-.23-.539.739.739,0,0,1,.23-.54.739.739,0,0,1,.539-.23.739.739,0,0,1,.539.23.739.739,0,0,1,.23.54.738.738,0,0,1-.23.539A.738.738,0,0,1,164-834Zm8,0a.738.738,0,0,1-.539-.23.738.738,0,0,1-.23-.539.739.739,0,0,1,.23-.54.739.739,0,0,1,.539-.23.739.739,0,0,1,.539.23.739.739,0,0,1,.23.54.738.738,0,0,1-.23.539A.738.738,0,0,1,172-834Z" transform="translate(-160 849.231)" fill="#5e6672"/>
</svg>
