<?xml version="1.0" encoding="utf-8"?>
<!-- Generator: Adobe Illustrator 26.0.1, SVG Export Plug-In . SVG Version: 6.00 Build 0)  -->
<svg version="1.1" id="Layer_1" xmlns="http://www.w3.org/2000/svg" xmlns:xlink="http://www.w3.org/1999/xlink" x="0px" y="0px"
	 viewBox="0 0 9.8 16.5" style="enable-background:new 0 0 9.8 16.5;" xml:space="preserve">
<g id="mike">
	<path id="Path_167" d="M4.9,11.9c2,0,3.6-1.6,3.6-3.6V6.2H1.3v2.1C1.3,10.3,2.9,11.9,4.9,11.9z"/>
	<path id="Path_168" d="M9.8,6v2.3c0,2.4-1.7,4.4-4,4.8v2h0.6c0.7,0,1.2,0.5,1.2,1.2c0,0.1-0.1,0.2-0.2,0.2H2.5
		c-0.1,0-0.2-0.1-0.2-0.2c0-0.7,0.5-1.2,1.2-1.2H4v-2c-2.3-0.4-4-2.4-4-4.8V6c0-0.1,0.1-0.2,0.2-0.2h0.5v2.5c0,2.3,1.8,4.1,4.1,4.1
		S9,10.6,9,8.3V5.7h0.5C9.6,5.7,9.8,5.8,9.8,6C9.8,6,9.8,6,9.8,6z M8.5,3.6c0-2-1.6-3.6-3.6-3.6S1.2,1.6,1.2,3.6c0,0,0,0,0,0v2.1
		h7.3V3.6z M2.9,4.4L2.8,4.5c-0.1,0.1-0.3,0-0.3-0.1s0-0.3,0.1-0.3L2.7,4C2.8,3.9,2.9,3.9,3,4S3.1,4.3,2.9,4.4z M3.3,2.9L3.1,3
		C3,3.1,2.8,3.1,2.8,3s0-0.3,0.1-0.3L3,2.5c0.1-0.1,0.3,0,0.3,0.1S3.4,2.8,3.3,2.9z M3.5,1.7c-0.1-0.1,0-0.3,0.1-0.3c0,0,0,0,0,0
		l0.2-0.1c0.1-0.1,0.3,0,0.3,0.1c0.1,0.1,0,0.3-0.1,0.3L3.9,1.7C3.7,1.8,3.6,1.8,3.5,1.7C3.5,1.7,3.5,1.7,3.5,1.7L3.5,1.7z M4.4,5.1
		L4.2,5.2c-0.1,0.1-0.3,0-0.3-0.1s0-0.3,0.1-0.3l0.2-0.1c0.1-0.1,0.3,0,0.3,0.1S4.5,5,4.4,5.1L4.4,5.1z M4.5,3.5L4.3,3.7
		C4.2,3.7,4,3.7,3.9,3.6s0-0.3,0.1-0.3l0.2-0.1c0.1-0.1,0.3,0,0.3,0.1S4.6,3.5,4.5,3.5z M5.1,2.4L4.9,2.5c-0.1,0.1-0.3,0-0.3-0.1
		s0-0.3,0.1-0.3l0.2-0.1C5,1.9,5.1,1.9,5.2,2C5.3,2.1,5.2,2.3,5.1,2.4L5.1,2.4z M5.3,3.2C5.4,3.1,5.6,3,5.7,3.1c0,0,0,0,0,0l0.2,0.1
		C6,3.3,6,3.5,5.9,3.6S5.7,3.7,5.6,3.7L5.4,3.5C5.3,3.5,5.3,3.3,5.3,3.2L5.3,3.2z M6,5.1C6,5.2,5.8,5.2,5.7,5.2c0,0,0,0,0,0L5.5,5.1
		C5.4,5,5.3,4.8,5.4,4.7s0.2-0.2,0.3-0.1l0.2,0.1C6.1,4.8,6.1,5,6,5.1C6,5.1,6,5.1,6,5.1L6,5.1z M6.2,1.7C6.2,1.8,6,1.8,5.9,1.7
		c0,0,0,0,0,0L5.7,1.6C5.6,1.6,5.6,1.4,5.6,1.3C5.7,1.2,5.9,1.1,6,1.2l0,0l0.2,0.1C6.3,1.4,6.3,1.5,6.2,1.7C6.2,1.7,6.2,1.7,6.2,1.7
		L6.2,1.7z M6.4,2.9C6.3,2.8,6.3,2.7,6.4,2.6s0.2-0.2,0.3-0.1l0.2,0.1C7,2.7,7,2.8,7,3S6.7,3.1,6.6,3L6.4,2.9z M7.3,4.4
		C7.3,4.5,7.1,4.6,7,4.5c0,0,0,0,0,0L6.8,4.4C6.7,4.3,6.7,4.2,6.7,4S7,3.9,7.1,4l0.2,0.1C7.4,4.2,7.4,4.3,7.3,4.4z"/>
</g>
</svg>
