<svg xmlns="http://www.w3.org/2000/svg" width="26.522" height="30" viewBox="0 0 26.522 30">
  <g id="Exhibitors_Black" data-name="Exhibitors Black" transform="translate(-264.49 -247.013)">
    <g id="Group_981" data-name="Group 981" transform="translate(264.49 247.013)">
      <path id="Path_1425" data-name="Path 1425" d="M304.356,253.941a3.216,3.216,0,0,1-4.55.007,3.2,3.2,0,0,1-4.543-.017,3.13,3.13,0,0,1-2.251.955,3.077,3.077,0,0,1-2.256-.942,8.27,8.27,0,0,1-.777.545,3.141,3.141,0,0,1-4.664-2.772q-.008-1.887,0-3.775a.876.876,0,0,1,.95-.931h22.545a.864.864,0,0,1,.939.887c.008,1.326.032,2.653-.014,3.978a2.936,2.936,0,0,1-1.951,2.77,3.007,3.007,0,0,1-3.335-.627C304.42,253.994,304.387,253.968,304.356,253.941Z" transform="translate(-284.25 -247.013)" fill="#fb5151"/>
      <path id="Path_1426" data-name="Path 1426" d="M266.685,664.453h-1.166c-.618,0-1.046-.36-1.029-.881a.931.931,0,0,1,1.02-.872q10.406.018,20.813.008c1.25,0,2.5,0,3.75,0a.864.864,0,0,1,.763.382.766.766,0,0,1,.066.882.858.858,0,0,1-.757.481c-.414.008-.829,0-1.281,0v.294q0,2.882,0,5.764a.872.872,0,0,1-.97.979q-10.113,0-20.226,0a.882.882,0,0,1-.983-.994q0-2.869,0-5.739Zm11.086,1.766h-6.607a.883.883,0,1,0-.014,1.76q6.62,0,13.24,0a1.158,1.158,0,0,0,.465-.1.853.853,0,0,0,.474-.974.885.885,0,0,0-.9-.681Q281.1,666.217,277.771,666.219Z" transform="translate(-264.49 -641.491)" fill="#fb5151"/>
      <path id="Path_1427" data-name="Path 1427" d="M426.15,445.432a5.232,5.232,0,0,1,1.733-2.555A5.454,5.454,0,0,1,430.7,441.7a3.139,3.139,0,0,1-2.3-1.873,2.915,2.915,0,0,1-.136-1.922,3.031,3.031,0,1,1,5.472,2.419,3.165,3.165,0,0,1-2.042,1.366,5.429,5.429,0,0,1,4.553,3.74Z" transform="translate(-417.902 -426.006)" fill="#fb5151"/>
      <path id="Path_1428" data-name="Path 1428" d="M708.24,429.072l1.716-.412v10.152H708.24Z" transform="translate(-685.599 -419.392)" fill="#fb5151"/>
      <path id="Path_1429" data-name="Path 1429" d="M307.89,428.65l1.726.417v9.739H307.89Z" transform="translate(-305.676 -419.382)" fill="#fb5151"/>
    </g>
  </g>
</svg>
