<svg xmlns="http://www.w3.org/2000/svg" width="16.3" height="14.717" viewBox="0 0 16.3 14.717">
  <g id="video-player" transform="translate(-2.85 -7.52)">
    <path id="Path_1292" data-name="Path 1292" d="M17.5,7.67H4.5A1.5,1.5,0,0,0,3,9.166v7.319a1.5,1.5,0,0,0,1.5,1.5H17.5A1.5,1.5,0,0,0,19,16.492V9.173a1.5,1.5,0,0,0-1.5-1.5Zm.986,8.822a.994.994,0,0,1-.992.994H4.5a.994.994,0,0,1-.986-.994V9.173A.994.994,0,0,1,4.5,8.181h13a.994.994,0,0,1,.986.986Z" stroke="rgba(35,39,45,0.5)" stroke-miterlimit="10" stroke-width="0.3"/>
    <path id="Path_1293" data-name="Path 1293" d="M17.036,25l-4.117-2.109a.543.543,0,0,0-.25-.061.557.557,0,0,0-.288.082.545.545,0,0,0-.264.47v4.054a.55.55,0,0,0,.255.466.558.558,0,0,0,.294.085.552.552,0,0,0,.237-.053l4.117-1.946A.551.551,0,0,0,17.036,25Zm-.231.533-4.121,1.946a.041.041,0,0,1-.044,0,.043.043,0,0,1-.022-.041V23.381a.044.044,0,0,1,.022-.041.078.078,0,0,1,.026,0,.051.051,0,0,1,.02,0L16.8,25.451a.037.037,0,0,1,.026.041c0,.029-.01.036-.024.041Zm-5.837,6.381a1.043,1.043,0,0,0-1.04-1.04H9.686a1.043,1.043,0,0,0-1.04,1.04v.6H7.49v.511H8.646v.6a1.042,1.042,0,0,0,1.04,1.042h.242a1.042,1.042,0,0,0,1.04-1.042v-.606H21.96v-.511H10.967Zm-.511,1.7a.538.538,0,0,1-.536.538H9.686a.536.536,0,0,1-.534-.538v-1.7a.536.536,0,0,1,.534-.534h.242a.536.536,0,0,1,.543.534Z" transform="translate(-3.726 -12.58)" stroke="rgba(35,39,45,0.5)" stroke-miterlimit="10" stroke-width="0.3"/>
  </g>
</svg>
