<svg xmlns="http://www.w3.org/2000/svg" width="29.344" height="30" viewBox="0 0 29.344 30">
  <g id="stall_1_" data-name="stall (1)" transform="translate(-21.094 -20)">
    <rect id="Rectangle_96" data-name="Rectangle 96" width="1.155" height="11.117" transform="translate(25.274 22.94)" fill="#f2a438"/>
    <rect id="Rectangle_97" data-name="Rectangle 97" width="1.155" height="11.117" transform="translate(45.102 22.94)" fill="#f2a438"/>
    <path id="Path_113" data-name="Path 113" d="M21.094,27.021v2.043a1.63,1.63,0,0,0,1.63,1.63h0a1.63,1.63,0,0,0,1.63-1.63V27.021Z" transform="translate(0 -4.915)" fill="#dc453a"/>
    <path id="Path_114" data-name="Path 114" d="M31.962,27.021v2.043a1.63,1.63,0,0,0,1.63,1.63h0a1.63,1.63,0,0,0,1.63-1.63V27.021Z" transform="translate(-7.608 -4.915)" fill="#ededed"/>
    <path id="Path_115" data-name="Path 115" d="M42.83,27.021v2.043a1.63,1.63,0,0,0,1.63,1.63h0a1.63,1.63,0,0,0,1.63-1.63V27.021Z" transform="translate(-15.215 -4.915)" fill="#dc453a"/>
    <path id="Path_116" data-name="Path 116" d="M53.7,27.021v2.043a1.63,1.63,0,0,0,1.63,1.63h0a1.63,1.63,0,0,0,1.63-1.63V27.021Z" transform="translate(-22.823 -4.915)" fill="#ededed"/>
    <path id="Path_117" data-name="Path 117" d="M64.566,27.021v2.043a1.63,1.63,0,0,0,1.63,1.63h0a1.63,1.63,0,0,0,1.63-1.63V27.021Z" transform="translate(-30.43 -4.915)" fill="#dc453a"/>
    <path id="Path_118" data-name="Path 118" d="M75.434,27.021v2.043a1.63,1.63,0,0,0,1.63,1.63h0a1.63,1.63,0,0,0,1.63-1.63V27.021Z" transform="translate(-38.038 -4.915)" fill="#ededed"/>
    <path id="Path_119" data-name="Path 119" d="M86.3,27.021v2.043a1.63,1.63,0,0,0,1.63,1.63h0a1.63,1.63,0,0,0,1.63-1.63V27.021Z" transform="translate(-45.646 -4.915)" fill="#dc453a"/>
    <path id="Path_120" data-name="Path 120" d="M97.17,27.021v2.043a1.63,1.63,0,0,0,1.63,1.63h0a1.63,1.63,0,0,0,1.63-1.63V27.021Z" transform="translate(-53.253 -4.915)" fill="#ededed"/>
    <path id="Path_121" data-name="Path 121" d="M108.038,27.021v2.043a1.63,1.63,0,0,0,1.63,1.63h0a1.63,1.63,0,0,0,1.63-1.63V27.021Z" transform="translate(-60.861 -4.915)" fill="#dc453a"/>
    <rect id="Rectangle_98" data-name="Rectangle 98" width="3.26" height="2.106" transform="translate(21.094 20)" fill="#ee4b3f"/>
    <rect id="Rectangle_99" data-name="Rectangle 99" width="3.26" height="2.106" transform="translate(24.354 20)" fill="#fff"/>
    <rect id="Rectangle_100" data-name="Rectangle 100" width="3.26" height="2.106" transform="translate(27.615 20)" fill="#ee4b3f"/>
    <rect id="Rectangle_101" data-name="Rectangle 101" width="3.26" height="2.106" transform="translate(30.875 20)" fill="#fff"/>
    <rect id="Rectangle_102" data-name="Rectangle 102" width="3.26" height="2.106" transform="translate(34.136 20)" fill="#ee4b3f"/>
    <rect id="Rectangle_103" data-name="Rectangle 103" width="3.26" height="2.106" transform="translate(37.396 20)" fill="#fff"/>
    <rect id="Rectangle_104" data-name="Rectangle 104" width="3.26" height="2.106" transform="translate(40.656 20)" fill="#ee4b3f"/>
    <rect id="Rectangle_105" data-name="Rectangle 105" width="3.26" height="2.106" transform="translate(43.917 20)" fill="#fff"/>
    <rect id="Rectangle_106" data-name="Rectangle 106" width="3.26" height="2.106" transform="translate(47.177 20)" fill="#ee4b3f"/>
    <path id="Path_122" data-name="Path 122" d="M33.272,74.788v12.76a.8.8,0,0,0,.8.8h20.43a.8.8,0,0,0,.8-.8V74.788Z" transform="translate(-8.525 -38.352)" fill="#5e6672"/>
    <path id="Path_123" data-name="Path 123" d="M52.177,66.859h-23.1A1.039,1.039,0,0,0,28.04,67.9V79.383a1.039,1.039,0,0,0,1.039,1.039h23.1a1.039,1.039,0,0,0,1.039-1.039V67.9A1.039,1.039,0,0,0,52.177,66.859Z" transform="translate(-4.862 -32.801)" fill="#2a9fe8"/>
  </g>
</svg>
