<svg xmlns="http://www.w3.org/2000/svg" width="8.864" height="15" viewBox="0 0 8.864 15">
  <g id="mike" transform="translate(-15.5 -2)">
    <path id="Path_167" data-name="Path 167" d="M23.8,31.97a3.3,3.3,0,0,0,3.3-3.3V26.79H20.5v1.884A3.3,3.3,0,0,0,23.8,31.97Z" transform="translate(-3.864 -19.156)" fill="#aa2ae8"/>
    <path id="Path_168" data-name="Path 168" d="M24.364,7.436V9.518a4.437,4.437,0,0,1-3.655,4.359v1.8h.548a1.1,1.1,0,0,1,1.093,1.093.228.228,0,0,1-.227.227H17.741a.228.228,0,0,1-.227-.227,1.1,1.1,0,0,1,1.093-1.093h.548v-1.8A4.437,4.437,0,0,1,15.5,9.518V7.436a.228.228,0,0,1,.227-.227h.455V9.518a3.75,3.75,0,1,0,7.5,0V7.209h.455A.228.228,0,0,1,24.364,7.436ZM23.227,5.3a3.3,3.3,0,1,0-6.591,0V7.18h6.591Zm-5.056.694-.167.1a.227.227,0,1,1-.241-.386l.167-.1a.227.227,0,1,1,.241.386Zm.335-1.338-.167.1A.227.227,0,1,1,18.1,4.37l.167-.1a.227.227,0,0,1,.241.386Zm.188-1.139a.227.227,0,0,1,.072-.313l.167-.1a.227.227,0,0,1,.241.386l-.167.1a.227.227,0,0,1-.313-.072ZM19.488,6.6l-.167.1a.227.227,0,1,1-.241-.386l.167-.1a.227.227,0,1,1,.241.386Zm.084-1.38-.167.1a.227.227,0,1,1-.241-.386l.167-.1a.227.227,0,0,1,.241.386Zm.564-1.07-.167.1a.227.227,0,1,1-.241-.386l.167-.1a.227.227,0,0,1,.241.386Zm.209.756a.227.227,0,0,1,.313-.072l.167.1a.227.227,0,0,1-.241.386l-.167-.1A.227.227,0,0,1,20.345,4.9Zm.636,1.726a.227.227,0,0,1-.313.072L20.5,6.6a.227.227,0,1,1,.241-.386l.167.1A.227.227,0,0,1,20.982,6.628Zm.188-3.115a.227.227,0,0,1-.313.072l-.167-.1A.227.227,0,1,1,20.93,3.1l.167.1A.227.227,0,0,1,21.17,3.513Zm.188,1.139a.227.227,0,1,1,.241-.386l.167.1a.227.227,0,0,1-.241.386Zm.815,1.37a.227.227,0,0,1-.313.072l-.167-.1a.227.227,0,1,1,.241-.386l.167.1A.227.227,0,0,1,22.173,6.022Z" fill="#aa2ae8"/>
  </g>
</svg>
