<svg xmlns="http://www.w3.org/2000/svg" width="36.223" height="25.246" viewBox="0 0 36.223 25.246">
  <g id="Icons" transform="translate(-0.5 -4.091)">
    <g id="XMLID_1980_" transform="translate(1 4.521)">
      <path id="XMLID_1924_" d="M24.986,22.721l-.306-.306a1.665,1.665,0,0,0-2.3,0l-.306.306L22,21.419l.383-.459a1.665,1.665,0,0,1,2.3,0l.383.459Z" transform="translate(-5.92 -8.265)" fill="#e8f4fa" stroke="#45413c" stroke-linecap="round" stroke-linejoin="round" stroke-miterlimit="10" stroke-width="1"/>
      <path id="XMLID_1923_" d="M1,17.471l5.283-9.8A4.787,4.787,0,0,1,8.81,5.449L10.8,4.683a.743.743,0,0,1,1,.842A3.5,3.5,0,0,1,8.81,8.282a1.85,1.85,0,0,0-1.378,1l-4.9,9.8Z" transform="translate(-1 -4.547)" fill="#87898c"/>
      <path id="XMLID_1922_" d="M43.689,17.471l-5.283-9.8a4.787,4.787,0,0,0-2.527-2.221l-1.991-.766a.743.743,0,0,0-1,.842,3.5,3.5,0,0,0,2.986,2.757,1.85,1.85,0,0,1,1.378,1l4.9,9.8Z" transform="translate(-8.466 -4.547)" fill="#87898c"/>
      <path id="XMLID_1921_" d="M6.283,9.176A4.787,4.787,0,0,1,8.81,6.955L10.8,6.19a.878.878,0,0,1,.766.077,2.743,2.743,0,0,0,.306-.842.725.725,0,0,0-1-.842l-1.991.766a4.809,4.809,0,0,0-2.6,2.3L1,17.446l.536.536L6.283,9.176Z" transform="translate(-1 -4.521)" fill="#bdbec0"/>
      <path id="XMLID_1920_" d="M33.122,6.291a.689.689,0,0,1,.766-.077l1.991.766A4.787,4.787,0,0,1,38.406,9.2l4.747,8.806.536-.536-5.283-9.8a4.787,4.787,0,0,0-2.527-2.221l-1.991-.766a.743.743,0,0,0-1,.842,2.247,2.247,0,0,0,.23.766Z" transform="translate(-8.466 -4.547)" fill="#bdbec0"/>
      <path id="XMLID_1919_" d="M1,17.471l5.283-9.8A4.787,4.787,0,0,1,8.81,5.449L10.8,4.683a.743.743,0,0,1,1,.842A3.5,3.5,0,0,1,8.81,8.282a1.85,1.85,0,0,0-1.378,1l-4.9,9.8Z" transform="translate(-1 -4.547)" fill="none" stroke="#45413c" stroke-linecap="round" stroke-linejoin="round" stroke-miterlimit="10" stroke-width="1"/>
      <path id="XMLID_1913_" d="M43.689,17.471l-5.283-9.8a4.787,4.787,0,0,0-2.527-2.221l-1.991-.766a.743.743,0,0,0-1,.842,3.5,3.5,0,0,0,2.986,2.757,1.85,1.85,0,0,1,1.378,1l4.9,9.8Z" transform="translate(-8.466 -4.547)" fill="none" stroke="#45413c" stroke-linecap="round" stroke-linejoin="round" stroke-miterlimit="10" stroke-width="1"/>
      <path id="XMLID_1912_" d="M1.689,23.18H3.68V20.5H1.689A.686.686,0,0,0,1,21.189v1.3A.686.686,0,0,0,1.689,23.18Z" transform="translate(-1 -8.265)" fill="#e8f4fa" stroke="#45413c" stroke-linecap="round" stroke-linejoin="round" stroke-miterlimit="10" stroke-width="1"/>
      <path id="XMLID_1911_" d="M45.491,23.18H43.5V20.5h1.991a.686.686,0,0,1,.689.689v1.3A.686.686,0,0,1,45.491,23.18Z" transform="translate(-10.957 -8.265)" fill="#e8f4fa" stroke="#45413c" stroke-linecap="round" stroke-linejoin="round" stroke-miterlimit="10" stroke-width="1"/>
      <path id="XMLID_1909_" d="M3.766,22.446S3,22.522,3,21.3,3.842,19,10.657,19s7.274,1.608,7.274,2.68-.766.766-.766.766Z" transform="translate(-1.469 -7.913)" fill="#87898c"/>
      <path id="XMLID_1908_" d="M39.666,22.446s.766.077.766-1.149S39.589,19,32.774,19,25.5,20.608,25.5,21.68s.766.766.766.766Z" transform="translate(-6.74 -7.913)" fill="#87898c"/>
      <path id="XMLID_1907_" d="M10.657,20.278c5.36,0,6.815,1,7.121,1.914a1.186,1.186,0,0,0,.153-.613c0-1.072-.459-2.68-7.274-2.68S3,20.049,3,21.274a1.529,1.529,0,0,0,.153.689c.383-.919,1.914-1.685,7.5-1.685Z" transform="translate(-1.469 -7.89)" fill="#bdbec0"/>
      <path id="XMLID_1906_" d="M32.774,20.3c5.59,0,7.121.766,7.5,1.685a1.529,1.529,0,0,0,.153-.689c0-1.225-.842-2.3-7.657-2.3S25.5,20.608,25.5,21.68a1.186,1.186,0,0,0,.153.613C25.959,21.3,27.414,20.3,32.774,20.3Z" transform="translate(-6.74 -7.913)" fill="#bdbec0"/>
      <path id="XMLID_1905_" d="M3.766,22.446S3,22.522,3,21.3,3.842,19,10.657,19s7.274,1.608,7.274,2.68-.766.766-.766.766Z" transform="translate(-1.469 -7.913)" fill="none" stroke="#45413c" stroke-linecap="round" stroke-linejoin="round" stroke-miterlimit="10" stroke-width="1"/>
      <path id="XMLID_1904_" d="M39.666,22.446s.766.077.766-1.149S39.589,19,32.774,19,25.5,20.608,25.5,21.68s.766.766.766.766Z" transform="translate(-6.74 -7.913)" fill="none" stroke="#45413c" stroke-linecap="round" stroke-linejoin="round" stroke-miterlimit="10" stroke-width="1"/>
      <path id="XMLID_1903_" d="M3.99,23.266A22.574,22.574,0,0,1,10.5,22.5a27.528,27.528,0,0,1,6.892.766s.23,7.5-1.914,8.806-8.04,1.531-9.954-.766S3.99,23.266,3.99,23.266Z" transform="translate(-1.693 -8.733)" fill="#00b8f0"/>
      <path id="XMLID_1902_" d="M15.4,22.883a37.477,37.477,0,0,0-4.9-.383,22.574,22.574,0,0,0-6.509.766s-.383,5.743,1.531,8.04c.766,1,2.3,1.455,3.905,1.685Z" transform="translate(-1.693 -8.733)" fill="#4acfff"/>
      <path id="XMLID_1901_" d="M39.9,23.266a22.575,22.575,0,0,0-6.509-.766,27.528,27.528,0,0,0-6.892.766s-.23,7.5,1.914,8.806,8.04,1.531,9.954-.766S39.9,23.266,39.9,23.266Z" transform="translate(-6.972 -8.733)" fill="#00b8f0"/>
      <path id="XMLID_1900_" d="M33.389,22.5a27.528,27.528,0,0,0-6.892.766s-.23,7.5,1.914,8.806a9.32,9.32,0,0,0,3.446.919l5.973-10.184A30.776,30.776,0,0,0,33.389,22.5Z" transform="translate(-6.972 -8.733)" fill="#4acfff"/>
      <path id="XMLID_1899_" d="M3.99,23.266A22.574,22.574,0,0,1,10.5,22.5a27.528,27.528,0,0,1,6.892.766s.23,7.5-1.914,8.806-8.04,1.531-9.954-.766S3.99,23.266,3.99,23.266Z" transform="translate(-1.693 -8.733)" fill="none" stroke="#45413c" stroke-linecap="round" stroke-linejoin="round" stroke-miterlimit="10" stroke-width="1"/>
      <path id="XMLID_1898_" d="M39.9,23.266a22.575,22.575,0,0,0-6.509-.766,27.528,27.528,0,0,0-6.892.766s-.23,7.5,1.914,8.806,8.04,1.531,9.954-.766S39.9,23.266,39.9,23.266Z" transform="translate(-6.972 -8.733)" fill="none" stroke="#45413c" stroke-linecap="round" stroke-linejoin="round" stroke-miterlimit="10" stroke-width="1"/>
    </g>
  </g>
</svg>
