<svg xmlns="http://www.w3.org/2000/svg" width="40" height="40" viewBox="0 0 40 40">
  <g id="Group_367" data-name="Group 367" transform="translate(-652 -314)">
    <circle id="Ellipse_107" data-name="Ellipse 107" cx="20" cy="20" r="20" transform="translate(652 314)" fill="#f5f5f5"/>
    <path id="calendar" d="M15.989,0a.89.89,0,0,1,.826.918h0V2.212c3.761.365,5.685,2.443,5.685,6.181h0V18.731C22.5,22.888,20.13,25,15.467,25H7.033C2.37,25,0,22.888,0,18.731H0V8.393C0,5.905.848,4.125,2.587,3.086h0l.122-.07a.857.857,0,0,1,.794.036.891.891,0,0,1-.089,1.582c-1.152.686-1.7,1.88-1.7,3.759h0v.332H17.576a.874.874,0,0,1,0,1.747H1.717v8.259c0,3.173,1.543,4.489,5.315,4.511h8.435c3.717,0,5.3-1.349,5.3-4.522h0V8.382c0-2.764-1.207-4.1-3.957-4.423h0V4.8a.868.868,0,0,1-1.728-.066h0V.841L15.1.7a.877.877,0,0,1,.262-.474A.85.85,0,0,1,15.989,0Zm.495,17.745.138.009a1.08,1.08,0,0,1,.632.312,1.115,1.115,0,0,1,.322.786,1.087,1.087,0,1,1-1.087-1.106Zm-5.212,0,.136.009a1.087,1.087,0,1,1-.136-.009Zm-5.212,0,.138.009a1.08,1.08,0,0,1,.632.312,1.115,1.115,0,0,1,.322.786,1.087,1.087,0,1,1-1.087-1.106Zm10.424-4.477.138.009a1.08,1.08,0,0,1,.632.312,1.115,1.115,0,0,1,.322.786,1.087,1.087,0,1,1-1.087-1.106Zm-5.212,0,.136.009a1.087,1.087,0,1,1-.136-.009Zm-5.212,0,.138.009a1.08,1.08,0,0,1,.632.312,1.115,1.115,0,0,1,.322.786,1.087,1.087,0,1,1-1.087-1.106ZM6.549.133a.875.875,0,0,1,.864.786h0V2.124h4.913a.874.874,0,0,1,0,1.747H7.391v.873a.881.881,0,0,1-.255.622.851.851,0,0,1-.614.252h0L6.4,5.605a.87.87,0,0,1-.711-.872h0V.919L5.709.788A.872.872,0,0,1,6.549.133Z" transform="translate(660.75 321.5)" fill="#200e32"/>
  </g>
</svg>
