<svg xmlns="http://www.w3.org/2000/svg" width="18" height="20" viewBox="0 0 18 20">
  <path id="download_5_" data-name="download (5)" d="M8.162,13.655a.5.5,0,0,0-.007.707l3.491,3.491a.5.5,0,0,0,.707,0l3.491-3.491a.5.5,0,0,0-.707-.707L12.5,16.293V2.5a.5.5,0,0,0-1,0V16.293L8.862,13.655A.5.5,0,0,0,8.162,13.655ZM18,9H16.5a.5.5,0,0,0,0,1H18a2,2,0,0,1,2,2v7a2,2,0,0,1-2,2H6a2,2,0,0,1-2-2V12a2,2,0,0,1,2-2H8.5a.5.5,0,0,0,0-1H6a3,3,0,0,0-3,3v7a3,3,0,0,0,3,3H18a3,3,0,0,0,3-3V12A3,3,0,0,0,18,9Z" transform="translate(-3 -2)" fill="#1c1b20"/>
</svg>
