<svg xmlns="http://www.w3.org/2000/svg" width="94.979" height="65.627" viewBox="0 0 94.979 65.627">
  <path id="path16038" d="M413.211-334.984c-.072-.141-.112-.284-.147-.268s-.061.205-.091.318c.036.093.072.252.109.262S413.148-334.824,413.211-334.984Zm9.269,6.979c.006.157.013.313.019.47.119-.347.276.206.456-.647l-.474.177Zm-2.744-13.873c-.02-.775-.111-1.043-.288-.708Zm20.712-10.635c0,.079,0,.158,0,.238h.369c0-.08,0-.159,0-.238Zm-16.64,24.819c0-.08,0-.16,0-.241h-.5v.241Zm5.2-2.346.452-.583C429.225-330.967,429.109-331.133,429-330.04Zm6.884-15.821a2.369,2.369,0,0,0,.385.366,4.307,4.307,0,0,0,.036-.688C436.217-346.858,436.1-346.892,435.887-345.862ZM418.7-349.528c0,.234,0,.466,0,.7l.762.277q.005-.3.011-.6ZM414.087-324.8c.358.721.445.716.8,0Zm13.587-5.634c-.337-.913-.845-.857-1.11,0Zm-8.4-12.331c-.315-.931-.682-1.05-1.012-.329C418.486-341.963,418.875-341.836,419.273-342.764Zm3.014,14.691c-.562-1.146-1.045-.948-1.567-.226C421.046-327.511,421.723-327.391,422.288-328.073Zm-8.23-21.315c.354,1.145.73.295,1.073.565s.68.057,1.021.057C415.755-349.841,414.566-350.062,414.058-349.389Zm7.495.267c.255,1.225.577.895.879,1.048s.609.378.908.567c.116-.881.129-1.567-.117-1.594A14.7,14.7,0,0,0,421.553-349.122Zm1.882,17.725c-.146-.153-.261-.366-.377-.378-.734-.079-1.468-.117-2.2-.154-.042,0-.084.123-.126.189q.024.264.048.527c.719.209,1.437.428,2.156.616a.465.465,0,0,0,.377-.13,4.281,4.281,0,0,0,.123-.669ZM417.8-313.372a4.226,4.226,0,0,0,.208.851,13.618,13.618,0,0,0,1.9.7c.175.047.263-.456.147-1.553Zm6.621-46.47c-.1-.231-.171-.545-.228-.5-.593.456-1.164-.5-1.751-.462a11.273,11.273,0,0,1-1.589-.094c-.176-.013-.335.125-.448.79a1.588,1.588,0,0,0,.055.254c1,.254,2,.555,3.006.719.3.049.633.388.955-.706Zm4.448,12c.143.331.192.545.242.543.26-.009.522-.2.779-.093.631.262,1.258.742,1.89.964.493.174.995-.049,1.487.167s.972-.677,1.463-.017a1.009,1.009,0,0,0,.66.377c.094.028.192-.157.358-.309-.512-1-2.5-1.683-5.845-2.063C429.592-348.311,429.27-348.73,428.866-347.843ZM413.949-334.7c.231.12.472.463.692.291.2-.156.474.439.653-1.016a4.787,4.787,0,0,0-1.092.034c-.085.021-.165.465-.251.7-.18-.341-.358-1.148-.613.147Zm9.888,3.538-.2-.5c-.009.24-.019.481-.028.721l.241-.291c.142.418.284.893.458.155C424.144-332.139,423.988-331.067,423.837-331.163Zm31.349-9.75-17.863-5.416c-.025,1.128.1,1.221.236,1.268.7.242,1.4.46,2.1.733.775.3,1.549.665,2.323.986.24.1.48.134.72.226.133.051.266.157.394.48-3.276.458-6.529-1.4-9.808-1.506l.546.705c.046.938-.054,1.093-.209,1.083-.61-.042-1.22-.024-1.83-.1-.787-.091-1.574-.324-2.362-.342-.4-.009-.795.462-1.192.444-.224-.009-.447-.565-.669-.888-.059-.085-.129-.375-.168-.3-.365.725-.718-.216-1.079-.114s-.737-.1-1.105-.079c-.312.022-.622.759-.935.034-.041-.094-.079-.211-.161-.431l.4-1.287c-.561-.733-1.047-.381-1.551.063l.877,1.465c-.041.619-.078,1.178-.124,1.861l.379.4c0,.087,0,.174.006.262l-.544.3c0,.181,0,.364,0,.545.32.206.641.4.961.621a8.726,8.726,0,0,0,.847.6,2.712,2.712,0,0,0,.656.118,8.831,8.831,0,0,0,.949.27c.8.1,1.6.085,2.4.25a19.13,19.13,0,0,1,2.4.752c1.824.637,3.646,1.319,5.47,1.94,2.016.687,4.034,1.31,6.051,1.99,2.178.735,4.356,1.445,6.532,2.276,1.214.464,2.425,1.144,3.637,1.742a2.019,2.019,0,0,1,.361.35c-.031.3-.043.523-.055.523a9.457,9.457,0,0,1-1.679-.051,3.409,3.409,0,0,1-1.434-.549,11.828,11.828,0,0,0-5.317-2.224c-.813-.1-1.624-.481-2.437-.66-.23-.05-.473.394-.692.2-.268-.242-.524.2-.816-.305-.367-.63-.814-.331-1.227-.408-1.922-.357-3.844-.661-5.766-1.075-1.17-.251-2.337-.778-3.507-.959-.584-.09-1.172.326-1.758.5a1.331,1.331,0,0,1-.386.013,19.206,19.206,0,0,1-3.6-.758,13.125,13.125,0,0,0-2.741-.018c-.852.007-1.7.026-2.555.017-1.138-.014-2.277-.058-3.415-.07-.138,0-.276.108-.43.575.087.152.172.418.261.439,1.151.264,2.3.493,3.455.73,1.079.222,2.158.438,3.237.67.921.2,1.843.428,2.765.627,1.394.3,2.788.611,4.183.869.428.079.86-.113,1.287.013a8.736,8.736,0,0,1,1.486.773q0,.221-.008.441l-2.362-.471c0,.076,0,.152-.007.227a5.342,5.342,0,0,0,.707,1c.248.195.505.129.758.169.273.043.546.076.818.115a2.568,2.568,0,0,0,.769.1c.255-.042.531.73.826-.534l-.607-.372a3.658,3.658,0,0,1,.1-.573,3.446,3.446,0,0,1,2.853.477c.519.336,1.028.984,1.559.553.7,1.122,1.463.392,2.227,1.547-1.56.116-3.055-1.011-4.558-1.144-.005.2-.011.4-.016.6l1.081.739c0,.108-.005.218-.008.328l-3.563-.985c.173,1.151.363.934.515,1,1.244.495,2.487.971,3.732,1.4,1.265.433,2.531.823,3.8,1.2,1.057.313,2.115.568,3.173.872.125.037.247.22.376.764-.139.047-.279.16-.418.129-.654-.142-1.307-.3-1.961-.5-.672-.2-1.343-.459-2.014-.671-.749-.235-1.5-.43-2.247-.673-.717-.233-1.432-.544-2.149-.756a31.733,31.733,0,0,0-6.833-1.482c-1.169-.078-2.337-.426-3.506-.6a11.076,11.076,0,0,0-1.582-.012c.123.777.3.592.441.619.768.138,1.537.2,2.3.328,1.219.208,2.438.411,3.656.691,1.57.361,3.14.774,4.71,1.208.815.225,1.63.54,2.444.828.093.034.223.011.272.262.222,1.141.52,1,.8,1.085.416.132.833.2,1.249.322.051.015.1.195.227.462-.464.774-.858.431-1.243.386-.476-.056-.95-.285-1.426-.324-.976-.079-1.952.011-2.927-.143-.814-.128-1.625-.549-2.439-.762a29.528,29.528,0,0,0-3.093-.667c-.7-.106-1.408-.009-2.111-.06-.658-.046-1.315-.181-1.972-.253-.61-.068-1.22-.086-1.83-.164a4.3,4.3,0,0,1-1.286-.28c-.629-.282-1.245.089-1.865.418-.125.067-.262.13-.379-.024-.721-.948-1.465-.769-2.2-.875a7.82,7.82,0,0,0-1.826.088c-.138.012-.276.131-.425.505a2.936,2.936,0,0,0,.232.366c.277.3.555.6.833.856a.522.522,0,0,0,.329.116c.85.115,1.7.223,2.551.334.032,0,.065.043.1.024.85-.518,1.684.484,2.527.6a13.923,13.923,0,0,1,2.245,1,9.316,9.316,0,0,0,1.724.289c.866.137,1.733.242,2.6.422,2.229.462,4.459.918,6.688,1.46a21.71,21.71,0,0,1,2.642.988c.056.021.11.142.172.619-.164.108-.327.3-.491.308a5.138,5.138,0,0,1-1.535-.085,6.391,6.391,0,0,1-1.584-.731,4.585,4.585,0,0,0-3.494-.763c-.358.089-.708-.449-1.059-.013-.592-1.165-1.219-.449-1.828-.626a6.062,6.062,0,0,0-1.829-.115,15.927,15.927,0,0,1-3.4-.3,1.871,1.871,0,0,0-.588.081c.12,1.174.305.962.447,1,.593.151,1.187.21,1.78.333,2.087.431,4.173.9,6.26,1.281.323.058.478.964.627,1.705l1.555.765c-.324,1.247-.631.4-.92.736-.011.352-.022.745-.04,1.31L420.64-313.2c-.022.236-.062.663-.1,1.1.054.081.1.183.1.147.142-.725.325-.477.5-.417,1.066.373,2.133.738,3.2,1.143.475.181.948.507,1.423.652.2.062.406-.257.609-.258.674-.006,1.347.053,2.021.087.016,0,.033-.009.048.005.327.3.625-.787,1,.034.3.661.722.228,1.09.294.352.062.7.139,1.057.214s.716-.08,1.048.317c.224.269.464-.176.7.7.158.588.506.6.75-.355.109-.429.3-1.164.382.255,0,.078.082.172.09.128.24-1.305.407.234.651.318.058-.437.126-.942.207-1.547a2.583,2.583,0,0,1,.956.878,2.468,2.468,0,0,0,1.305.96,5.483,5.483,0,0,0,.9.231c.337.117.673.293,1.009.437,1.1.47,2.193.934,3.289,1.408a8.655,8.655,0,0,1,1.466.77,5,5,0,0,1-1.047-.011c-1.237-.257-2.473-.544-3.709-.852-1.41-.351-2.819-.825-4.229-1.084-1.443-.265-2.888-.319-4.331-.5-.93-.116-1.859-.313-2.789-.439-.673-.092-1.347-.119-2.02-.189-2.1-.216-4.2-.489-6.306-.636a23.326,23.326,0,0,0-3.173.132c-1.379.092-2.758.233-4.137.32-1.323.085-2.647.152-3.97.189s-2.635.011-3.952.041c-2.232.049-4.465.077-6.7.208-1.01.059-2.02.4-3.03.507-1.574.167-3.148.271-4.723.353-1.959.1-3.918.1-5.877.248-1.265.1-2.528.443-3.792.579a29.892,29.892,0,0,1-4.473.285,49.457,49.457,0,0,1-5.442-.634c-1.027-.157-2.053-.5-3.08-.741-.526-.124-1.02.2-1.444,1.82a2.852,2.852,0,0,1-.489.89c-.039-1.579.322-1.573.372-2.84a2.258,2.258,0,0,0-1.468-.452,3.929,3.929,0,0,0-2.341,1.091c-.506.531-1.044.452-1.649.676.124-.4.2-.642.306-1l-.639-1.957a5.441,5.441,0,0,0,.484-2.25,5.262,5.262,0,0,1,.274-1.409,10.242,10.242,0,0,0,.554-3.7,2.161,2.161,0,0,1,.077-.433l-.577-4.021c.285-.532.515-.964.728-1.362-.009-1.981.1-4-.548-4.182.238-1.422-.183-3.057.24-4.4l-.7-1.165c.066-.47.105-.981.185-1.269a4.942,4.942,0,0,0,.118-1.864c-.033-.384.039-.924.042-1.4a10.628,10.628,0,0,0-.038-1.363,5.5,5.5,0,0,1,.066-2.9,3.9,3.9,0,0,0,.2-.592,8.236,8.236,0,0,0,.154-1.429c-.187-1.3-.032-2.788-.151-4.087-.07-.767-.139-1.536-.221-2.441a10.219,10.219,0,0,0,.089-3,11.38,11.38,0,0,1,.114-1.531c.068-.714.14-1.424.221-2.111.093-.791.07-1.37-.14-1.54a16.586,16.586,0,0,1,.914-4.924,12.093,12.093,0,0,0,.715-3.1c.22-1.7.573-2.4.989-2.591a14.09,14.09,0,0,1,1.579-.721,28.542,28.542,0,0,1,4.656-1.347,8.242,8.242,0,0,1,2.932.626c.654.162,1.308.4,1.963.51a10.31,10.31,0,0,0,2.208.175c1.059-.055,2.118-.311,3.177-.344.784-.025,1.575-.366,2.349.624a.62.62,0,0,0,.525.224c1.832.171,3.664.315,5.5.49a9.789,9.789,0,0,0,3.209.276c.673-.159,1.339.487,2,.036.623-.425,1.229-.065,1.843.223.356.169.725.341,1.073.083a2.029,2.029,0,0,0,.534-.622c.194-.336.449.024.677.078a2.823,2.823,0,0,0,.718.154c.235-.009.47-.216.7-.179.2.031.4.321.6.429.13.069.263.013.406.013a3.091,3.091,0,0,0,.308.788c.114.107.248-.036.3-.777.068-.965.219-1.078.42-.671.832,1.686,1.728.906,2.6,1.49l.135-1.588c.086.122.208.151.222.338.169,2.33.612,1.362.948,1.564.133.081.278-.225.5-.431-.164-.369-.27-.6-.387-.865.325-.667.45-.489.771,1.112l.205-1.047c.032-.016.07-.093.093-.037.652,1.6,1.371.611,2.054,1.043a.941.941,0,0,0,.955.141c.206-.106.337,1.4.553.367.423,1.114.876-.026,1.32.364.395.347.814.1,1.227.317.564.293,1.141.082,1.713.135,1.183.108,2.367.272,3.55.368,1.217.1,2.434.071,3.65.234.818.109,1.633.486,2.451.682a11.912,11.912,0,0,0,1.541.194c.383.042.766.057,1.148.113a12.011,12.011,0,0,0,1.53.232c.136,0,.272-.41.429-.666.026.945.232.759.411.788a19.255,19.255,0,0,1,1.919.3A13.928,13.928,0,0,1,435.467-362a14.677,14.677,0,0,0,3.652,1.206c.72.239,1.439.566,2.159.868.094.04.221.017.274.27.382,1.822.888,1.168,1.347,1.448a.98.98,0,0,1,.526.608c-.04.057-.081.162-.121.164a10.072,10.072,0,0,1-5.151-.8,2.252,2.252,0,0,0-2.066-.365c-1.153.576-2.306-.231-3.466.667a2.057,2.057,0,0,0,.418.319c1.008.384,2.017.729,3.025,1.136a1.215,1.215,0,0,1,.638.625c.267.512.509.639.786.166.1-.164.24.354.358.311,1.268-.456,2.479,1.589,3.741,1.612a6.774,6.774,0,0,1,2.333,1.041l.013-.065c-.141.465-.269.851-.475.73a2.917,2.917,0,0,0-1.145-.3.764.764,0,0,0-.741.257c.958,1.06,1.952.721,2.908,1.732-3.765-.948-7.522-2.335-11.285-3.381,0,.187-.008.374-.011.561l2.473,1.012c.051.461.11,1,.177,1.6-.04.1-.079.269-.116.263-.689-.119-1.377-.258-2.066-.394-.351-.069-.7-.149-1.054-.21-2.158-.377-4.317-.781-6.476-1.107-.825-.125-1.651-.026-2.476-.11-.7-.071-1.4-.328-2.105-.378-1.258-.09-2.516-.1-3.774-.115-1.829-.02-3.659.009-5.489-.024-1.556-.028-3.113-.149-4.669-.15-.353,0-.706.325-1.056.91a12.488,12.488,0,0,0,1.357.152c1.67.007,3.339-.106,5.009-.007,2.324.136,4.646.421,6.969.644,2.454.235,4.908.433,7.362.727,1.139.137,2.277.482,3.416.7.722.141,1.445.167,2.166.353,1.315.34,2.629.751,3.943,1.15q2.692.815,5.382,1.661c.769.243,1.537.54,2.307.782.977.309,1.957.516,2.933.9,1.1.43,2.2,1.024,3.3,1.512.781.346,1.562.624,2.343.954.637.268,1.272.547,1.907.873.08.041.152.4.228.616l.009-.045" transform="translate(-360.207 370.842)" fill="#c8fb51"/>
</svg>
