<svg xmlns="http://www.w3.org/2000/svg" xmlns:xlink="http://www.w3.org/1999/xlink" width="241.417" height="42.974" viewBox="0 0 241.417 42.974">
  <defs>
    <clipPath id="clip-path">
      <path id="Path_191" data-name="Path 191" d="M124.855,97.281h25.1v42.106h-25.1Zm0,0" transform="translate(-124.855 -97.282)" fill="#c8fb51"/>
    </clipPath>
    <clipPath id="clip-path-2">
      <path id="Path_193" data-name="Path 193" d="M177,100h25.083v42.041H177Zm0,0" transform="translate(-177 -99.999)" fill="#c8fb51"/>
    </clipPath>
  </defs>
  <g id="Group_362" data-name="Group 362" transform="translate(-1049.355 -224.641)">
    <g id="Group_363" data-name="Group 363">
      <g id="Group_336" data-name="Group 336" transform="translate(1049.355 224.642)" clip-path="url(#clip-path)">
        <path id="Path_190" data-name="Path 190" d="M146.355,100.951a17.925,17.925,0,0,1,3.5.344V97.578a21.491,21.491,0,0,0-13.747,40.094v0l.17.09.1.051c.1.05.189.1.284.147l.111.055.279.138.13.06q.183.086.366.169c.1.044.2.088.295.13l.137.059q.151.064.3.125l.123.05c.11.044.22.087.331.129l.1.036c.127.048.255.094.383.139l.052.019.109.038h0l.343.117V113.218l10.052,5.8v-4.754l-13.661-7.887v26.993a17.83,17.83,0,0,1,10.246-32.422" transform="translate(-124.863 -97.29)" fill="#c8fb51"/>
      </g>
      <g id="Group_337" data-name="Group 337" transform="translate(1067.246 225.572)" clip-path="url(#clip-path-2)">
        <path id="Path_192" data-name="Path 192" d="M191.2,101.9v0q-.75-.408-1.536-.755c-.031-.015-.063-.028-.094-.042l-.277-.119-.155-.064c-.08-.033-.161-.067-.243-.1l-.214-.083-.2-.075q-.209-.078-.418-.153c-.158-.055-.316-.109-.474-.159V126.35l-10.052-5.8V125.3l13.661,7.887V106.2a17.831,17.831,0,0,1-13.617,32.1v3.714A21.49,21.49,0,0,0,191.2,101.9" transform="translate(-177.357 -100.225)" fill="#c8fb51"/>
      </g>
    </g>
    <g id="Group_340" data-name="Group 340" transform="translate(1106.112 235.605)">
      <g id="Group_339" data-name="Group 339" transform="translate(0)">
        <g id="Group_338" data-name="Group 338" transform="translate(0 0)">
          <path id="Path_194" data-name="Path 194" d="M21.379-3.165H17.9L6.716-18.223V-3.165H3.172V-24.156H6.648L17.9-9.072V-24.156h3.476Zm0,0" transform="translate(-3.172 24.156)" fill="#fff"/>
        </g>
      </g>
    </g>
    <g id="Group_343" data-name="Group 343" transform="translate(1134.48 235.605)">
      <g id="Group_342" data-name="Group 342" transform="translate(0)">
        <g id="Group_341" data-name="Group 341" transform="translate(0 0)">
          <path id="Path_195" data-name="Path 195" d="M18.175-20.979H6.716v5.662H16.967v3.191H6.716v5.784H18.528v3.177H3.172V-24.156h15Zm0,0" transform="translate(-3.172 24.156)" fill="#fff"/>
        </g>
      </g>
    </g>
    <g id="Group_346" data-name="Group 346" transform="translate(1157.031 235.51)">
      <g id="Group_345" data-name="Group 345" transform="translate(0)">
        <g id="Group_344" data-name="Group 344" transform="translate(0 0)">
          <path id="Path_196" data-name="Path 196" d="M4.376-21.211a11.059,11.059,0,0,1,7.916-3.055,11.036,11.036,0,0,1,7.916,3.055,9.958,9.958,0,0,1,3.218,7.535A10.077,10.077,0,0,1,20.207-6.1,11,11,0,0,1,12.292-3.03,11.027,11.027,0,0,1,4.376-6.1a10.089,10.089,0,0,1-3.2-7.576A9.97,9.97,0,0,1,4.376-21.211Zm7.956.122a7.435,7.435,0,0,0-5.35,2.145A7.052,7.052,0,0,0,4.77-13.675,7.1,7.1,0,0,0,7-8.38a7.376,7.376,0,0,0,5.322,2.172A7.218,7.218,0,0,0,17.6-8.38a7.154,7.154,0,0,0,2.2-5.3,7.078,7.078,0,0,0-2.2-5.268A7.259,7.259,0,0,0,12.333-21.088Zm0,0" transform="translate(-1.172 24.266)" fill="#fff"/>
        </g>
      </g>
    </g>
    <g id="Group_349" data-name="Group 349" transform="translate(1187.676 235.605)">
      <g id="Group_348" data-name="Group 348" transform="translate(0)">
        <g id="Group_347" data-name="Group 347" transform="translate(0 0)">
          <path id="Path_197" data-name="Path 197" d="M17.238-20.979H6.716v6.056h9.531v3.15H6.716v8.608H3.172V-24.156H17.265Zm0,0" transform="translate(-3.172 24.156)" fill="#fff"/>
        </g>
      </g>
    </g>
    <g id="Group_352" data-name="Group 352" transform="translate(1206.808 235.605)">
      <g id="Group_351" data-name="Group 351" transform="translate(0)">
        <g id="Group_350" data-name="Group 350" transform="translate(0 0)">
          <path id="Path_198" data-name="Path 198" d="M16.324-7.9H5.734L3.724-3.165H.031L9.3-24.156H12.93L22.108-3.165H18.334Zm-1.358-3.15-3.951-9.328L7.051-11.054Zm0,0" transform="translate(-0.031 24.156)" fill="#fff"/>
        </g>
      </g>
    </g>
    <g id="Group_355" data-name="Group 355" transform="translate(1236.285 235.605)">
      <g id="Group_354" data-name="Group 354" transform="translate(0)">
        <g id="Group_353" data-name="Group 353" transform="translate(0 0)">
          <path id="Path_199" data-name="Path 199" d="M6.716-3.165H3.172V-24.156H6.716Zm0,0" transform="translate(-3.172 24.156)" fill="#fff"/>
        </g>
      </g>
    </g>
    <g id="Group_358" data-name="Group 358" transform="translate(1249.959 235.605)">
      <g id="Group_357" data-name="Group 357" transform="translate(0)">
        <g id="Group_356" data-name="Group 356" transform="translate(0 0)">
          <path id="Path_200" data-name="Path 200" d="M16.491-3.165,12.649-9.52c-.2.02-.516.027-.95.027H6.716v6.327H3.172V-24.156H11.7a9.371,9.371,0,0,1,6.232,1.874,6.541,6.541,0,0,1,2.227,5.3,7.649,7.649,0,0,1-1.127,4.25A6.538,6.538,0,0,1,15.8-10.185l4.711,7.02Zm-9.776-9.5H11.7q5.092,0,5.092-4.236,0-4.073-5.092-4.073H6.716Zm0,0" transform="translate(-3.172 24.156)" fill="#fff"/>
        </g>
      </g>
    </g>
    <g id="Group_361" data-name="Group 361" transform="translate(1274.276 235.455)">
      <g id="Group_360" data-name="Group 360" transform="translate(0)">
        <g id="Group_359" data-name="Group 359" transform="translate(0 0)">
          <path id="Path_201" data-name="Path 201" d="M9.77-24.328a13.075,13.075,0,0,1,7.359,2.159l-1.48,3.109A11.924,11.924,0,0,0,9.5-21a4.678,4.678,0,0,0-2.5.57,1.8,1.8,0,0,0-.91,1.616,2.321,2.321,0,0,0,.828,1.792,5.172,5.172,0,0,0,2.1,1.073q1.263.341,2.729.869c.978.353,1.887.726,2.729,1.113a4.938,4.938,0,0,1,2.077,1.833,5.312,5.312,0,0,1,.828,3.014,5.246,5.246,0,0,1-2.2,4.413A9.3,9.3,0,0,1,9.472-3.066a12.487,12.487,0,0,1-4.657-.9A13.11,13.11,0,0,1,.891-6.392L2.425-9.461A11.774,11.774,0,0,0,5.914-7.18a9.521,9.521,0,0,0,3.625.787,5.222,5.222,0,0,0,2.892-.679,2.131,2.131,0,0,0,1.032-1.874,2.322,2.322,0,0,0-.842-1.819,5.236,5.236,0,0,0-2.1-1.073q-1.253-.351-2.729-.842T5.059-13.724A4.955,4.955,0,0,1,2.968-15.5a5.156,5.156,0,0,1-.842-2.987,5.067,5.067,0,0,1,2.091-4.25A8.978,8.978,0,0,1,9.77-24.328Zm0,0" transform="translate(-0.891 24.328)" fill="#fff"/>
        </g>
      </g>
    </g>
  </g>
</svg>
