<svg xmlns="http://www.w3.org/2000/svg" xmlns:xlink="http://www.w3.org/1999/xlink" width="1080.01" height="288.945" viewBox="0 0 1080.01 288.945">
  <defs>
    <clipPath id="clip-path">
      <path id="Path_191" data-name="Path 191" d="M124.855,97.281H293.6V380.393H124.855Zm0,0" transform="translate(-124.855 -97.281)" fill="#b3ff00"/>
    </clipPath>
    <clipPath id="clip-path-2">
      <path id="Path_193" data-name="Path 193" d="M177,100H345.652V382.68H177Zm0,0" transform="translate(-177 -100)" fill="#b3ff00"/>
    </clipPath>
  </defs>
  <g id="Group_917" data-name="Group 917" transform="translate(7560 -14090)">
    <g id="Group_363" data-name="Group 363" transform="translate(-7560 14090)">
      <g id="Group_336" data-name="Group 336" clip-path="url(#clip-path)">
        <path id="Path_190" data-name="Path 190" d="M269.35,121.886a120.586,120.586,0,0,1,23.562,2.321l-.024-24.995A144.5,144.5,0,0,0,200.457,368.8v.018c.378.2.757.4,1.144.6.216.117.441.234.658.342.64.333,1.27.667,1.91.991.253.126.5.243.748.369.622.307,1.244.622,1.874.928.289.135.586.271.874.406q1.23.581,2.46,1.136c.658.3,1.316.594,1.983.874.306.135.612.261.919.4q1.013.433,2.027.838c.279.117.55.216.829.333.739.3,1.478.586,2.226.865l.649.243c.856.324,1.712.631,2.577.937.117.036.234.081.352.126.243.081.487.171.73.253v-.009c.766.262,1.532.523,2.307.784V204.37l67.587,39.021V211.426l-91.855-53.034v181.5a119.886,119.886,0,0,1,68.893-218" transform="translate(-124.84 -97.266)" fill="#b3ff00"/>
      </g>
      <g id="Group_337" data-name="Group 337" transform="translate(120.294 6.266)" clip-path="url(#clip-path-2)">
        <path id="Path_192" data-name="Path 192" d="M269.4,110.779v-.018q-5.043-2.744-10.328-5.074c-.207-.1-.423-.189-.631-.279-.622-.27-1.244-.541-1.866-.8-.351-.144-.694-.288-1.045-.432-.541-.225-1.081-.451-1.631-.667-.477-.189-.964-.37-1.442-.559-.442-.172-.883-.343-1.324-.5q-1.406-.527-2.812-1.027c-1.064-.369-2.127-.73-3.19-1.072V275.207l-67.587-39.03v31.964L269.4,321.176V139.689a119.9,119.9,0,0,1-91.558,215.84V380.5A144.5,144.5,0,0,0,269.4,110.779" transform="translate(-176.29 -99.551)" fill="#b3ff00"/>
      </g>
    </g>
    <g id="Group_916" data-name="Group 916" transform="translate(0 -41.543)">
      <g id="Group_340" data-name="Group 340" transform="translate(-7214.048 14191.642)">
        <g id="Group_339" data-name="Group 339">
          <g id="Group_338" data-name="Group 338">
            <path id="Path_194" data-name="Path 194" d="M77.279,61.28H63.132L17.6-.007V61.28H3.172V-24.156H17.319l45.813,61.4v-61.4H77.279Zm0,0" transform="translate(-3.172 24.156)" fill="#fff"/>
          </g>
        </g>
      </g>
      <g id="Group_343" data-name="Group 343" transform="translate(-7108.954 14191.642)">
        <g id="Group_342" data-name="Group 342">
          <g id="Group_341" data-name="Group 341">
            <path id="Path_195" data-name="Path 195" d="M64.237-11.225H17.6V11.82H59.319V24.806H17.6V48.348H65.674V61.28H3.172V-24.156H64.237Zm0,0" transform="translate(-3.172 24.156)" fill="#fff"/>
          </g>
        </g>
      </g>
      <g id="Group_346" data-name="Group 346" transform="translate(-7021.791 14191.257)">
        <g id="Group_345" data-name="Group 345">
          <g id="Group_344" data-name="Group 344">
            <path id="Path_196" data-name="Path 196" d="M14.214-11.832q13.1-12.434,32.218-12.434,19.169,0,32.218,12.434a40.531,40.531,0,0,1,13.1,30.671,41.014,41.014,0,0,1-13.1,30.836q-13.056,12.5-32.218,12.489-19.128,0-32.218-12.489A41.064,41.064,0,0,1,1.172,18.839,40.58,40.58,0,0,1,14.214-11.832Zm32.384.5A30.26,30.26,0,0,0,24.824-2.6a28.7,28.7,0,0,0-9.008,21.442,28.906,28.906,0,0,0,9.063,21.552,30.022,30.022,0,0,0,21.663,8.842,29.378,29.378,0,0,0,21.5-8.842A29.116,29.116,0,0,0,77,18.842,28.807,28.807,0,0,0,68.04-2.6,29.546,29.546,0,0,0,46.6-11.334Zm0,0" transform="translate(-1.172 24.266)" fill="#fff"/>
          </g>
        </g>
      </g>
      <g id="Group_349" data-name="Group 349" transform="translate(-6907.774 14191.642)">
        <g id="Group_348" data-name="Group 348">
          <g id="Group_347" data-name="Group 347">
            <path id="Path_197" data-name="Path 197" d="M60.424-11.225H17.6V13.422H56.39V26.243H17.6V61.28H3.172V-24.156H60.534Zm0,0" transform="translate(-3.172 24.156)" fill="#fff"/>
          </g>
        </g>
      </g>
      <g id="Group_352" data-name="Group 352" transform="translate(-6822.383 14191.642)">
        <g id="Group_351" data-name="Group 351">
          <g id="Group_350" data-name="Group 350">
            <path id="Path_198" data-name="Path 198" d="M66.346,41.993h-43.1L15.063,61.28H.031L37.776-24.156H52.531L89.888,61.28H74.525ZM60.82,29.172,44.739-8.793,28.6,29.172Zm0,0" transform="translate(-0.031 24.156)" fill="#fff"/>
          </g>
        </g>
      </g>
      <g id="Group_355" data-name="Group 355" transform="translate(-6697.732 14191.642)">
        <g id="Group_354" data-name="Group 354">
          <g id="Group_353" data-name="Group 353">
            <path id="Path_199" data-name="Path 199" d="M17.6,61.28H3.172V-24.156H17.6Zm0,0" transform="translate(-3.172 24.156)" fill="#fff"/>
          </g>
        </g>
      </g>
      <g id="Group_358" data-name="Group 358" transform="translate(-6646.114 14191.642)">
        <g id="Group_357" data-name="Group 357">
          <g id="Group_356" data-name="Group 356">
            <path id="Path_200" data-name="Path 200" d="M57.384,61.28,41.745,35.417c-.815.083-2.1.111-3.868.111H17.6V61.28H3.172V-24.156h34.7q16.351,0,25.366,7.626Q72.3-8.9,72.305,5.022q0,10.237-4.587,17.3A26.612,26.612,0,0,1,54.566,32.709L73.742,61.28ZM17.6,22.6H37.877Q58.6,22.6,58.6,5.354q0-16.579-20.723-16.579H17.6Zm0,0" transform="translate(-3.172 24.156)" fill="#fff"/>
          </g>
        </g>
      </g>
      <g id="Group_361" data-name="Group 361" transform="translate(-6547.144 14191.036)">
        <g id="Group_360" data-name="Group 360">
          <g id="Group_359" data-name="Group 359">
            <path id="Path_201" data-name="Path 201" d="M37.032-24.328a53.218,53.218,0,0,1,29.952,8.787L60.961-2.886q-13.056-7.9-25.034-7.9c-4.31,0-7.709.774-10.168,2.321a7.338,7.338,0,0,0-3.7,6.576A9.445,9.445,0,0,0,25.427,5.4a21.049,21.049,0,0,0,8.566,4.366Q39.132,11.154,45.1,13.3c3.979,1.437,7.681,2.957,11.108,4.532a20.1,20.1,0,0,1,8.455,7.46,21.622,21.622,0,0,1,3.371,12.268,21.351,21.351,0,0,1-8.953,17.96q-8.952,6.7-23.265,6.69a50.825,50.825,0,0,1-18.955-3.647A53.36,53.36,0,0,1,.891,48.674l6.244-12.49a47.92,47.92,0,0,0,14.2,9.284A38.751,38.751,0,0,0,36.09,48.673c5.043,0,8.966-.912,11.771-2.763a8.672,8.672,0,0,0,4.2-7.626,9.45,9.45,0,0,0-3.426-7.405,21.31,21.31,0,0,0-8.566-4.366q-5.1-1.43-11.108-3.426Q23,21.056,17.856,18.832a20.167,20.167,0,0,1-8.51-7.239A20.985,20.985,0,0,1,5.92-.565a20.624,20.624,0,0,1,8.51-17.3Q22.989-24.328,37.032-24.328Zm0,0" transform="translate(-0.891 24.328)" fill="#fff"/>
          </g>
        </g>
      </g>
      <path id="Path_1384" data-name="Path 1384" d="M27.986,15.783a2.487,2.487,0,0,1,1.8.766,2.527,2.527,0,0,1,.779,1.873,3.078,3.078,0,0,1-.109.8,2.689,2.689,0,0,1-.367.792l-11.819,16.7.811-3.039V49.386a2.527,2.527,0,0,1-.753,1.86A2.409,2.409,0,0,1,16.566,52a2.491,2.491,0,0,1-1.841-.753,2.539,2.539,0,0,1-.747-1.86V34.078l.373,1.506L3,20.366a3.658,3.658,0,0,1-.579-1.043,2.981,2.981,0,0,1-.167-.94,2.3,2.3,0,0,1,.9-1.873,2.914,2.914,0,0,1,1.841-.727A2.584,2.584,0,0,1,7.1,16.98L17.377,31.117l-1.21-.18,9.669-13.879A2.579,2.579,0,0,1,27.986,15.783Zm33.449,22.66a14.423,14.423,0,0,1-1.822,7.3A13.272,13.272,0,0,1,54.7,50.719a14.292,14.292,0,0,1-13.873,0A13.3,13.3,0,0,1,35.9,45.743a14.383,14.383,0,0,1-1.828-7.3A14.409,14.409,0,0,1,35.9,31.13a13.638,13.638,0,0,1,23.709,0A14.449,14.449,0,0,1,61.436,38.443Zm-5.15,0a10.172,10.172,0,0,0-1.133-4.905,8.551,8.551,0,0,0-3.064-3.29,8.441,8.441,0,0,0-8.646,0,8.582,8.582,0,0,0-3.077,3.29,10.125,10.125,0,0,0-1.139,4.905A10.013,10.013,0,0,0,40.366,43.3a8.582,8.582,0,0,0,3.077,3.29,8.441,8.441,0,0,0,8.646,0,8.551,8.551,0,0,0,3.064-3.29A10.059,10.059,0,0,0,56.286,38.443ZM89.992,24.911a2.458,2.458,0,0,1,1.848.753,2.574,2.574,0,0,1,.727,1.86V41.082q0,5.343-2.981,8.362T81.16,52.464q-5.433,0-8.395-3.019T69.8,41.082V27.525a2.562,2.562,0,0,1,.734-1.86,2.635,2.635,0,0,1,3.689,0,2.574,2.574,0,0,1,.727,1.86V41.082a6.951,6.951,0,0,0,1.59,4.989,6.107,6.107,0,0,0,4.616,1.654,6.179,6.179,0,0,0,4.667-1.654,6.951,6.951,0,0,0,1.59-4.989V27.525a2.574,2.574,0,0,1,.727-1.86A2.458,2.458,0,0,1,89.992,24.911ZM104.876,52a2.458,2.458,0,0,1-1.848-.753,2.574,2.574,0,0,1-.727-1.86V27.525a2.562,2.562,0,0,1,.734-1.86,2.635,2.635,0,0,1,3.689,0,2.574,2.574,0,0,1,.727,1.86v5.807l-.489-2.253a9.319,9.319,0,0,1,1.275-2.659,9.8,9.8,0,0,1,2.034-2.157,9.162,9.162,0,0,1,5.678-1.944,3.933,3.933,0,0,1,2.337.708,2.122,2.122,0,0,1,1,1.79,2.576,2.576,0,0,1-.721,2.028,2.356,2.356,0,0,1-1.6.637,3.568,3.568,0,0,1-1.519-.328,3.981,3.981,0,0,0-1.687-.328,4.819,4.819,0,0,0-2.221.573,6.672,6.672,0,0,0-2.041,1.674,8.744,8.744,0,0,0-1.487,2.6,9.49,9.49,0,0,0-.56,3.341V49.386a2.562,2.562,0,0,1-.734,1.86A2.464,2.464,0,0,1,104.876,52Zm65.212-36.127a2.7,2.7,0,0,1,1.873.7,2.28,2.28,0,0,1,.779,1.77,3.05,3.05,0,0,1-.258,1.172l-13.068,30.81a2.707,2.707,0,0,1-1.088,1.262,2.453,2.453,0,0,1-2.781-.039,2.566,2.566,0,0,1-.985-1.184L141.518,19.516a2,2,0,0,1-.18-.547,3.268,3.268,0,0,1-.051-.573,2.231,2.231,0,0,1,.888-1.893,2.873,2.873,0,0,1,1.712-.669,2.5,2.5,0,0,1,2.408,1.712L158.1,45.5l-1.506.026,11.124-28.016A2.476,2.476,0,0,1,170.088,15.873Zm15.283,33.5a2.6,2.6,0,0,1-.721,1.88,2.643,2.643,0,0,1-3.682,0,2.549,2.549,0,0,1-.747-1.88V27.331a2.549,2.549,0,0,1,.747-1.88,2.643,2.643,0,0,1,3.682,0,2.6,2.6,0,0,1,.721,1.88Zm-2.626-28.068a3.448,3.448,0,0,1-2.163-.541,2.223,2.223,0,0,1-.669-1.828v-.824a2.067,2.067,0,0,1,.721-1.8A3.723,3.723,0,0,1,182.8,15.8a3.552,3.552,0,0,1,2.214.541,2.155,2.155,0,0,1,.67,1.777v.824a2.169,2.169,0,0,1-.7,1.854A3.815,3.815,0,0,1,182.744,21.306ZM197.421,52a2.458,2.458,0,0,1-1.848-.753,2.574,2.574,0,0,1-.727-1.86V27.525a2.562,2.562,0,0,1,.734-1.86,2.635,2.635,0,0,1,3.689,0,2.574,2.574,0,0,1,.727,1.86v5.807l-.489-2.253a9.319,9.319,0,0,1,1.275-2.659,9.8,9.8,0,0,1,2.034-2.157,9.162,9.162,0,0,1,5.678-1.944,3.933,3.933,0,0,1,2.337.708,2.122,2.122,0,0,1,1,1.79,2.576,2.576,0,0,1-.721,2.028,2.356,2.356,0,0,1-1.6.637,3.568,3.568,0,0,1-1.519-.328,3.981,3.981,0,0,0-1.687-.328,4.819,4.819,0,0,0-2.221.573,6.672,6.672,0,0,0-2.041,1.674,8.744,8.744,0,0,0-1.487,2.6,9.49,9.49,0,0,0-.56,3.341V49.386a2.562,2.562,0,0,1-.734,1.86A2.464,2.464,0,0,1,197.421,52Zm21.141-26.754H230.7a2.364,2.364,0,0,1,2.408,2.408,2.223,2.223,0,0,1-.689,1.661,2.368,2.368,0,0,1-1.719.669H218.562a2.375,2.375,0,0,1-2.408-2.408,2.213,2.213,0,0,1,.7-1.661A2.374,2.374,0,0,1,218.562,25.246Zm5.446-6.721a2.4,2.4,0,0,1,1.828.753,2.613,2.613,0,0,1,.708,1.86v23.9a2.991,2.991,0,0,0,.322,1.513,1.721,1.721,0,0,0,.856.76,2.987,2.987,0,0,0,1.114.212,2.454,2.454,0,0,0,1-.2,2.554,2.554,0,0,1,1.043-.2,1.5,1.5,0,0,1,1.139.573,2.253,2.253,0,0,1,.509,1.551,2.277,2.277,0,0,1-1.326,1.976,5.617,5.617,0,0,1-2.9.779,17.741,17.741,0,0,1-2.073-.142,5.941,5.941,0,0,1-2.279-.772,4.883,4.883,0,0,1-1.828-2,8.219,8.219,0,0,1-.734-3.83V21.139a2.573,2.573,0,0,1,2.614-2.614Zm37.543,6.386a2.458,2.458,0,0,1,1.848.753,2.574,2.574,0,0,1,.727,1.86V41.082q0,5.343-2.981,8.362t-8.427,3.019q-5.433,0-8.395-3.019t-2.961-8.362V27.525a2.562,2.562,0,0,1,.734-1.86,2.635,2.635,0,0,1,3.689,0,2.574,2.574,0,0,1,.727,1.86V41.082a6.951,6.951,0,0,0,1.59,4.989,6.107,6.107,0,0,0,4.616,1.654,6.179,6.179,0,0,0,4.667-1.654,6.951,6.951,0,0,0,1.59-4.989V27.525a2.574,2.574,0,0,1,.727-1.86A2.458,2.458,0,0,1,261.552,24.911Zm34.544-.386a2.491,2.491,0,0,1,1.848.734,2.557,2.557,0,0,1,.727,1.88V49.386a2.562,2.562,0,0,1-.734,1.86,2.635,2.635,0,0,1-3.689,0,2.574,2.574,0,0,1-.727-1.86V45.666l1.056.18a3.857,3.857,0,0,1-.747,2.054,9.679,9.679,0,0,1-2.034,2.182,11.6,11.6,0,0,1-3.032,1.738,10.114,10.114,0,0,1-3.779.7,11.538,11.538,0,0,1-6.367-1.822,12.75,12.75,0,0,1-4.48-5.008A15.672,15.672,0,0,1,272.5,38.4a15.619,15.619,0,0,1,1.648-7.313,12.792,12.792,0,0,1,4.448-4.97,11.283,11.283,0,0,1,6.238-1.8,11.618,11.618,0,0,1,4.094.7,11.489,11.489,0,0,1,3.27,1.835,9.383,9.383,0,0,1,2.157,2.408,4.674,4.674,0,0,1,.766,2.382l-1.6.18V27.138a2.574,2.574,0,0,1,.727-1.86A2.458,2.458,0,0,1,296.1,24.525ZM285.589,47.777a7.494,7.494,0,0,0,4.262-1.23,8.32,8.32,0,0,0,2.878-3.36,11.525,11.525,0,0,0,0-9.553,8.338,8.338,0,0,0-2.878-3.347,7.946,7.946,0,0,0-8.472-.013A8.3,8.3,0,0,0,278.5,33.6a11.567,11.567,0,0,0-.006,9.585,8.32,8.32,0,0,0,2.878,3.36A7.427,7.427,0,0,0,285.589,47.777ZM314,49.386A2.573,2.573,0,0,1,311.391,52a2.413,2.413,0,0,1-1.809-.753,2.574,2.574,0,0,1-.727-1.86V16.5a2.573,2.573,0,0,1,2.614-2.614,2.4,2.4,0,0,1,1.828.753A2.613,2.613,0,0,1,314,16.5ZM344.274,15.95h17.793a2.6,2.6,0,0,1,1.86.715,2.4,2.4,0,0,1,.753,1.822,2.232,2.232,0,0,1-.753,1.751,2.7,2.7,0,0,1-1.86.67H346.552l.476-.876V31.554l-.464-.489h13.184a2.6,2.6,0,0,1,1.86.715,2.4,2.4,0,0,1,.753,1.822,2.231,2.231,0,0,1-.753,1.751,2.7,2.7,0,0,1-1.86.67H346.707l.322-.451V47.455l-.361-.412h15.4a2.528,2.528,0,0,1,1.86.753,2.4,2.4,0,0,1,.753,1.745,2.291,2.291,0,0,1-.753,1.77,2.654,2.654,0,0,1-1.86.689H344.274a2.573,2.573,0,0,1-2.614-2.614V18.564a2.573,2.573,0,0,1,2.614-2.614Zm28.6,8.729a2.846,2.846,0,0,1,1.487.412,2.475,2.475,0,0,1,1.024,1.223L383.439,45l-.979.476,8.214-19.119a2.286,2.286,0,0,1,2.317-1.635,2.407,2.407,0,0,1,1.719.65,2.161,2.161,0,0,1,.689,1.642,2.2,2.2,0,0,1-.109.676q-.109.341-.238.637l-9.785,22.042A2.444,2.444,0,0,1,383.053,52a2.369,2.369,0,0,1-1.558-.315,2.651,2.651,0,0,1-1.12-1.32l-9.759-22.029q-.09-.219-.193-.56a2.747,2.747,0,0,1-.1-.792A2.3,2.3,0,0,1,371,25.432,2.393,2.393,0,0,1,372.869,24.679Zm42.706,27.836a14.794,14.794,0,0,1-7.4-1.783,12.452,12.452,0,0,1-4.873-4.892,14.431,14.431,0,0,1-1.719-7.1,15.474,15.474,0,0,1,1.828-7.77,13.023,13.023,0,0,1,4.77-4.931,12.172,12.172,0,0,1,6.238-1.719,11.9,11.9,0,0,1,4.783.985,12.755,12.755,0,0,1,4.03,2.762,13.554,13.554,0,0,1,2.8,4.178A13.337,13.337,0,0,1,427.1,37.49a2.251,2.251,0,0,1-.811,1.693,2.682,2.682,0,0,1-1.8.663H404.477l-1.236-4.352h19.364l-.979.888V35.108a5.636,5.636,0,0,0-1.223-3.154,7.684,7.684,0,0,0-5.987-2.871,9.229,9.229,0,0,0-2.974.483,6.483,6.483,0,0,0-2.523,1.571A7.7,7.7,0,0,0,407.174,34a12.872,12.872,0,0,0-.65,4.39,9.985,9.985,0,0,0,1.184,4.976,8.471,8.471,0,0,0,3.18,3.257,8.746,8.746,0,0,0,4.455,1.152,10.735,10.735,0,0,0,3.1-.38,7.513,7.513,0,0,0,2.066-.953q.83-.573,1.448-1.088a3.057,3.057,0,0,1,1.532-.463,2.079,2.079,0,0,1,1.564.65,2.117,2.117,0,0,1,.624,1.513,2.619,2.619,0,0,1-1.133,2.047,12.265,12.265,0,0,1-3.843,2.388A13.129,13.129,0,0,1,415.575,52.515Zm33.861-28.2a9.193,9.193,0,0,1,5.665,1.519A7.951,7.951,0,0,1,457.9,29.9a18.838,18.838,0,0,1,.8,5.659V49.386a2.562,2.562,0,0,1-.734,1.86,2.635,2.635,0,0,1-3.689,0,2.574,2.574,0,0,1-.727-1.86V35.61a9.968,9.968,0,0,0-.515-3.3,4.735,4.735,0,0,0-1.77-2.363,5.973,5.973,0,0,0-3.5-.888,7.537,7.537,0,0,0-3.714.888,6.742,6.742,0,0,0-2.517,2.363,6.139,6.139,0,0,0-.914,3.3V49.386a2.562,2.562,0,0,1-.734,1.86,2.635,2.635,0,0,1-3.689,0,2.574,2.574,0,0,1-.727-1.86V27.525a2.562,2.562,0,0,1,.734-1.86,2.635,2.635,0,0,1,3.689,0,2.574,2.574,0,0,1,.727,1.86v2.923l-.9.5a7.487,7.487,0,0,1,1.249-2.3,11.625,11.625,0,0,1,2.189-2.163,10.994,10.994,0,0,1,2.89-1.577A9.71,9.71,0,0,1,449.437,24.319Zm18.63.927h12.141a2.364,2.364,0,0,1,2.408,2.408,2.223,2.223,0,0,1-.689,1.661,2.368,2.368,0,0,1-1.719.669H468.067a2.375,2.375,0,0,1-2.408-2.408,2.213,2.213,0,0,1,.7-1.661A2.374,2.374,0,0,1,468.067,25.246Zm5.446-6.721a2.4,2.4,0,0,1,1.828.753,2.613,2.613,0,0,1,.708,1.86v23.9a2.991,2.991,0,0,0,.322,1.513,1.721,1.721,0,0,0,.856.76,2.987,2.987,0,0,0,1.114.212,2.454,2.454,0,0,0,1-.2,2.554,2.554,0,0,1,1.043-.2,1.5,1.5,0,0,1,1.139.573,2.253,2.253,0,0,1,.509,1.551,2.277,2.277,0,0,1-1.326,1.976,5.617,5.617,0,0,1-2.9.779,17.741,17.741,0,0,1-2.073-.142,5.941,5.941,0,0,1-2.279-.772,4.883,4.883,0,0,1-1.828-2,8.219,8.219,0,0,1-.734-3.83V21.139a2.573,2.573,0,0,1,2.614-2.614ZM490.34,47.764a2.6,2.6,0,0,1-.431-1.642,2.071,2.071,0,0,1,1.1-1.629,2.3,2.3,0,0,1,1.487-.386,2.443,2.443,0,0,1,1.539.811,11.566,11.566,0,0,0,3.212,2.511,9.279,9.279,0,0,0,4.32.914,10.056,10.056,0,0,0,2.092-.315,3.987,3.987,0,0,0,1.86-1.043,2.938,2.938,0,0,0,.773-2.182,2.669,2.669,0,0,0-.824-2.054,6.486,6.486,0,0,0-2.157-1.268,28.975,28.975,0,0,0-2.916-.914q-1.648-.464-3.309-1.036a13.108,13.108,0,0,1-3.013-1.474,7.029,7.029,0,0,1-2.189-2.33,6.935,6.935,0,0,1-.837-3.553,6.645,6.645,0,0,1,1.352-4.184,8.853,8.853,0,0,1,3.56-2.71,11.777,11.777,0,0,1,4.744-.959,14.69,14.69,0,0,1,3.167.367,12.532,12.532,0,0,1,3.206,1.191,8.508,8.508,0,0,1,2.652,2.2,2.8,2.8,0,0,1,.6,1.577,1.94,1.94,0,0,1-.83,1.667,2.146,2.146,0,0,1-1.519.457,2.213,2.213,0,0,1-1.429-.6,6.672,6.672,0,0,0-2.536-1.906,8.517,8.517,0,0,0-3.476-.682,7.958,7.958,0,0,0-2.047.277,3.922,3.922,0,0,0-1.777,1,2.831,2.831,0,0,0-.734,2.111,2.781,2.781,0,0,0,.856,2.066,6.277,6.277,0,0,0,2.234,1.275q1.4.5,3.051.946,1.584.412,3.148.972a11.869,11.869,0,0,1,2.845,1.461,6.808,6.808,0,0,1,2.06,2.311,7.328,7.328,0,0,1,.779,3.573,6.594,6.594,0,0,1-1.448,4.294,9.175,9.175,0,0,1-3.7,2.71,12.251,12.251,0,0,1-4.719.927,16.868,16.868,0,0,1-5.845-1.062A10.776,10.776,0,0,1,490.34,47.764ZM551.059,15.95a9.21,9.21,0,0,1,5.047,1.468,10.776,10.776,0,0,1,3.689,3.991,11.636,11.636,0,0,1,1.384,5.691,11.678,11.678,0,0,1-1.384,5.665,11.092,11.092,0,0,1-3.689,4.062,9.011,9.011,0,0,1-5.047,1.513h-9.965l.438-.785V49.386a2.626,2.626,0,0,1-.7,1.86,2.361,2.361,0,0,1-1.809.753,2.306,2.306,0,0,1-1.783-.753,2.654,2.654,0,0,1-.689-1.86V18.564a2.573,2.573,0,0,1,2.614-2.614Zm0,17.471a3.844,3.844,0,0,0,2.44-.882,6.5,6.5,0,0,0,1.809-2.33A7.092,7.092,0,0,0,556,27.1a6.881,6.881,0,0,0-.7-3.109,6.236,6.236,0,0,0-1.809-2.24,3.953,3.953,0,0,0-2.44-.843h-10.03l.5-.76V34.078l-.476-.657Zm40.376-8.9a2.491,2.491,0,0,1,1.848.734,2.557,2.557,0,0,1,.727,1.88V49.386a2.562,2.562,0,0,1-.734,1.86,2.635,2.635,0,0,1-3.689,0,2.574,2.574,0,0,1-.727-1.86V45.666l1.056.18a3.857,3.857,0,0,1-.747,2.054,9.68,9.68,0,0,1-2.034,2.182A11.6,11.6,0,0,1,584.1,51.82a10.114,10.114,0,0,1-3.779.7,11.538,11.538,0,0,1-6.367-1.822,12.75,12.75,0,0,1-4.48-5.008,15.671,15.671,0,0,1-1.642-7.281,15.619,15.619,0,0,1,1.648-7.313,12.792,12.792,0,0,1,4.448-4.97,11.283,11.283,0,0,1,6.238-1.8,11.618,11.618,0,0,1,4.094.7,11.489,11.489,0,0,1,3.27,1.835,9.382,9.382,0,0,1,2.157,2.408,4.674,4.674,0,0,1,.766,2.382l-1.6.18V27.138a2.574,2.574,0,0,1,.727-1.86A2.458,2.458,0,0,1,591.435,24.525ZM580.929,47.777a7.494,7.494,0,0,0,4.262-1.23,8.32,8.32,0,0,0,2.878-3.36,11.525,11.525,0,0,0,0-9.553,8.339,8.339,0,0,0-2.878-3.347,7.946,7.946,0,0,0-8.472-.013,8.3,8.3,0,0,0-2.884,3.328,11.567,11.567,0,0,0-.006,9.585,8.32,8.32,0,0,0,2.878,3.36A7.427,7.427,0,0,0,580.929,47.777ZM606.318,52a2.458,2.458,0,0,1-1.848-.753,2.574,2.574,0,0,1-.727-1.86V27.525a2.562,2.562,0,0,1,.734-1.86,2.635,2.635,0,0,1,3.689,0,2.574,2.574,0,0,1,.727,1.86v5.807l-.489-2.253a9.319,9.319,0,0,1,1.275-2.659,9.8,9.8,0,0,1,2.034-2.157,9.162,9.162,0,0,1,5.678-1.944,3.933,3.933,0,0,1,2.337.708,2.122,2.122,0,0,1,1,1.79A2.576,2.576,0,0,1,620,28.844a2.355,2.355,0,0,1-1.6.637,3.568,3.568,0,0,1-1.519-.328,3.981,3.981,0,0,0-1.687-.328,4.819,4.819,0,0,0-2.221.573,6.672,6.672,0,0,0-2.041,1.674,8.744,8.744,0,0,0-1.487,2.6,9.491,9.491,0,0,0-.56,3.341V49.386a2.562,2.562,0,0,1-.734,1.86A2.464,2.464,0,0,1,606.318,52Zm21.141-26.754H639.6a2.364,2.364,0,0,1,2.408,2.408,2.223,2.223,0,0,1-.689,1.661,2.368,2.368,0,0,1-1.719.669H627.459a2.375,2.375,0,0,1-2.408-2.408,2.213,2.213,0,0,1,.7-1.661A2.374,2.374,0,0,1,627.459,25.246Zm5.446-6.721a2.4,2.4,0,0,1,1.828.753,2.613,2.613,0,0,1,.708,1.86v23.9a2.991,2.991,0,0,0,.322,1.513,1.721,1.721,0,0,0,.856.76,2.987,2.987,0,0,0,1.114.212,2.454,2.454,0,0,0,1-.2,2.554,2.554,0,0,1,1.043-.2,1.5,1.5,0,0,1,1.139.573,2.253,2.253,0,0,1,.509,1.551,2.277,2.277,0,0,1-1.326,1.976,5.617,5.617,0,0,1-2.9.779,17.74,17.74,0,0,1-2.073-.142,5.941,5.941,0,0,1-2.279-.772,4.883,4.883,0,0,1-1.828-2,8.22,8.22,0,0,1-.734-3.83V21.139a2.573,2.573,0,0,1,2.614-2.614Zm31.325,5.794a9.192,9.192,0,0,1,5.665,1.519,7.952,7.952,0,0,1,2.794,4.062,18.838,18.838,0,0,1,.8,5.659V49.386a2.562,2.562,0,0,1-.734,1.86,2.635,2.635,0,0,1-3.689,0,2.574,2.574,0,0,1-.727-1.86V35.61a9.969,9.969,0,0,0-.515-3.3,4.736,4.736,0,0,0-1.77-2.363,5.973,5.973,0,0,0-3.5-.888,7.537,7.537,0,0,0-3.714.888,6.742,6.742,0,0,0-2.517,2.363,6.139,6.139,0,0,0-.914,3.3V49.386a2.562,2.562,0,0,1-.734,1.86,2.635,2.635,0,0,1-3.689,0,2.574,2.574,0,0,1-.727-1.86V27.525a2.562,2.562,0,0,1,.734-1.86,2.635,2.635,0,0,1,3.689,0,2.574,2.574,0,0,1,.727,1.86v2.923l-.9.5a7.486,7.486,0,0,1,1.249-2.3,11.625,11.625,0,0,1,2.189-2.163,10.993,10.993,0,0,1,2.89-1.577A9.71,9.71,0,0,1,664.23,24.319Zm31.621,28.2a14.793,14.793,0,0,1-7.4-1.783,12.452,12.452,0,0,1-4.873-4.892,14.431,14.431,0,0,1-1.719-7.1,15.474,15.474,0,0,1,1.828-7.77,13.023,13.023,0,0,1,4.77-4.931,12.172,12.172,0,0,1,6.238-1.719,11.9,11.9,0,0,1,4.783.985,12.756,12.756,0,0,1,4.03,2.762,13.554,13.554,0,0,1,2.8,4.178,13.337,13.337,0,0,1,1.069,5.247,2.25,2.25,0,0,1-.811,1.693,2.682,2.682,0,0,1-1.8.663H684.753l-1.236-4.352h19.364l-.979.888V35.108a5.636,5.636,0,0,0-1.223-3.154,7.683,7.683,0,0,0-5.987-2.871,9.229,9.229,0,0,0-2.974.483,6.483,6.483,0,0,0-2.523,1.571A7.7,7.7,0,0,0,687.45,34a12.871,12.871,0,0,0-.65,4.39,9.985,9.985,0,0,0,1.185,4.976,8.471,8.471,0,0,0,3.18,3.257,8.746,8.746,0,0,0,4.455,1.152,10.736,10.736,0,0,0,3.1-.38,7.514,7.514,0,0,0,2.066-.953q.83-.573,1.448-1.088a3.057,3.057,0,0,1,1.532-.463,2.079,2.079,0,0,1,1.564.65,2.116,2.116,0,0,1,.624,1.513,2.619,2.619,0,0,1-1.133,2.047,12.265,12.265,0,0,1-3.843,2.388A13.13,13.13,0,0,1,695.851,52.515ZM718.318,52a2.458,2.458,0,0,1-1.848-.753,2.574,2.574,0,0,1-.727-1.86V27.525a2.562,2.562,0,0,1,.734-1.86,2.635,2.635,0,0,1,3.689,0,2.574,2.574,0,0,1,.727,1.86v5.807l-.489-2.253a9.319,9.319,0,0,1,1.275-2.659,9.8,9.8,0,0,1,2.034-2.157,9.162,9.162,0,0,1,5.678-1.944,3.933,3.933,0,0,1,2.337.708,2.122,2.122,0,0,1,1,1.79A2.576,2.576,0,0,1,732,28.844a2.355,2.355,0,0,1-1.6.637,3.568,3.568,0,0,1-1.519-.328,3.981,3.981,0,0,0-1.687-.328,4.819,4.819,0,0,0-2.221.573,6.672,6.672,0,0,0-2.041,1.674,8.744,8.744,0,0,0-1.487,2.6,9.491,9.491,0,0,0-.56,3.341V49.386a2.562,2.562,0,0,1-.734,1.86A2.464,2.464,0,0,1,718.318,52Z" transform="translate(-7215 14298)" fill="#fff"/>
    </g>
  </g>
</svg>
