<svg xmlns="http://www.w3.org/2000/svg" width="34.25" height="31.161" viewBox="0 0 34.25 31.161">
  <g id="menu" transform="translate(-2 -4.705)">
    <path id="Path_1282" data-name="Path 1282" d="M44.826,16.723l-8.32,2.008a.571.571,0,0,0,.268,1.109l8.32-2.008a.571.571,0,0,0-.268-1.109Zm-8.268,6.883,8.32-2.008a.571.571,0,0,0-.268-1.109L36.291,22.5a.571.571,0,0,0,.268,1.109Zm8.268.307-8.32,2.008a.571.571,0,0,0,.268,1.109l8.32-2.008a.571.571,0,0,0-.268-1.109Zm-.216,3.766-8.32,2.008a.571.571,0,1,0,.268,1.109l8.32-2.008a.571.571,0,0,0-.268-1.109Zm-9.939-9.357a.57.57,0,0,0-1.062-.417,1.212,1.212,0,0,1-.611.617v1.2a2.4,2.4,0,0,0,1.673-1.4Zm0,4.875a.571.571,0,0,0-1.062-.422,1.212,1.212,0,0,1-.611.616V24.6a2.423,2.423,0,0,0,1.673-1.4Zm0,5.137a.571.571,0,0,0-1.062-.422,1.212,1.212,0,0,1-.611.616v1.21a2.423,2.423,0,0,0,1.673-1.4Zm0,5.137a.571.571,0,0,0-1.062-.422,1.212,1.212,0,0,1-.611.616v1.21a2.423,2.423,0,0,0,1.673-1.4Z" transform="translate(-13.304 -5.15)" fill="#aa2ae8"/>
    <path id="Path_1283" data-name="Path 1283" d="M34.137,5.06,19.124,8.685,2.719,4.729A.568.568,0,0,0,2,5.277V29.252a.576.576,0,0,0,.137.371l4.841,5.651a1.721,1.721,0,0,0,3.014-1.119s0-2.529,0-2.529c.054.01,8.953,2.17,9,2.175a.608.608,0,0,0,.32-.011l15.623-3.773a1.7,1.7,0,0,0,1.313-1.661V6.727A1.723,1.723,0,0,0,34.137,5.06ZM8.849,34.155a.571.571,0,0,1-1,.377c-.741-.865-4.028-4.709-4.7-5.491V6.818l5.571,6.5a.653.653,0,0,1,.137.371V34.155ZM9.99,13.676a1.888,1.888,0,0,0-.6-1.315l5.055,1.221a.571.571,0,0,1-.131,1.125.562.562,0,0,1-.137-.017L9.99,13.676Zm0,6.016,4.458,1.077a.575.575,0,0,1-.131,1.13.562.562,0,0,1-.137-.017l-4.19-1.014V19.692Zm5.092,5.535a.567.567,0,0,1-.685.417L9.991,24.583V23.408l4.675,1.129a.572.572,0,0,1,.417.691Zm0-7.192a.565.565,0,0,1-.685.422L9.991,17.392V16.216l4.675,1.129a.572.572,0,0,1,.417.691ZM35.107,28.356a.568.568,0,0,1-.434.554L19.7,32.523v-2.8a2.489,2.489,0,0,1-2.808-1.33.573.573,0,0,1,1.05-.457,1.351,1.351,0,0,0,1.758.577V24.588a2.489,2.489,0,0,1-2.808-1.33.573.573,0,0,1,1.05-.457,1.351,1.351,0,0,0,1.758.577V19.451a2.489,2.489,0,0,1-2.808-1.33.573.573,0,0,1,1.05-.457,1.353,1.353,0,0,0,1.758.577V14.576a2.488,2.488,0,0,1-2.808-1.33.573.573,0,0,1,1.05-.457,1.351,1.351,0,0,0,1.758.582V9.724L34.4,6.173a.575.575,0,0,1,.491.1.582.582,0,0,1,.217.451V28.356Z" transform="translate(0 0)" fill="#aa2ae8"/>
  </g>
</svg>
