<svg id="notifications_1_" data-name="notifications (1)" xmlns="http://www.w3.org/2000/svg" width="33.563" height="33.563" viewBox="0 0 33.563 33.563">
  <path id="Path_52" data-name="Path 52" d="M0,0H33.563V33.563H0Z" fill="none"/>
  <path id="Path_53" data-name="Path 53" d="M15.023,29.77a2.805,2.805,0,0,0,2.8-2.8H12.226A2.8,2.8,0,0,0,15.023,29.77Zm8.391-8.391V14.387c0-4.293-2.294-7.887-6.293-8.838V4.6a2.1,2.1,0,0,0-4.2,0v.951C8.912,6.5,6.632,10.08,6.632,14.387v6.992l-1.8,1.8a1.4,1.4,0,0,0,.979,2.391H24.225a1.4,1.4,0,0,0,.993-2.391Z" transform="translate(1.759 0.996)" fill="#222"/>
</svg>
