<svg xmlns="http://www.w3.org/2000/svg" width="37.762" height="24.26" viewBox="0 0 37.762 24.26">
  <g id="people_1_" data-name="people (1)" transform="translate(-32 -112.056)">
    <path id="Path_1284" data-name="Path 1284" d="M346.249,333.769C347.2,334.1,345.305,333.44,346.249,333.769Z" transform="translate(-287.524 -202.947)"/>
    <path id="Path_1285" data-name="Path 1285" d="M136.563,130.822c-1.137-.4-2.367-.421-3.5-.817-.345-.118-1.028-.261-1.171-.657a4.776,4.776,0,0,1-.16-1.247q-.025-.48-.025-.96c0-.211.539-.657.657-.851a6.405,6.405,0,0,0,.581-2.637c.733.2.826-1.154.952-1.567.093-.286.657-2.258-.219-1.988a3.544,3.544,0,0,0,.354-1.239,7.443,7.443,0,0,0-.093-3.311,5.217,5.217,0,0,0-5-3.488,5.357,5.357,0,0,0-5.35,3.185,6.954,6.954,0,0,0-.236,3.328,4.17,4.17,0,0,0,.4,1.525c-.817-.244-.379,1.491-.286,1.795.135.43.253,1.971,1.019,1.761a12.053,12.053,0,0,0,.329,2.047,3.063,3.063,0,0,0,.691,1.171c.152.169.227.185.219.4a8.412,8.412,0,0,1-.16,2.005c-.169.64-1.576.91-2.14,1.028a9.654,9.654,0,0,0-4.179,1.4A5.614,5.614,0,0,0,117,136.316h23.422A5.741,5.741,0,0,0,136.563,130.822Z" transform="translate(-77.839)"/>
    <path id="Path_1286" data-name="Path 1286" d="M143.3,321.767l.135-.067a.5.5,0,0,0-.067.034A.251.251,0,0,0,143.3,321.767Z" transform="translate(-101.923 -191.981)"/>
    <path id="Path_1287" data-name="Path 1287" d="M41.377,173.508c-.286.143-.632.32.067-.034l.067-.034a5.329,5.329,0,0,1,1.8-.4c.236-.025.345-.185.169-.413-.337-.43-1.5-.514-1.988-.708a.527.527,0,0,1-.413-.564c-.008-.152-.093-.826.025-.935.084-.084.615-.051.733-.067a5.94,5.94,0,0,0,1.424-.337,2.605,2.605,0,0,0,.548-.286c.2-.152-.152-.522-.244-.725A5.7,5.7,0,0,1,43.113,167a32.787,32.787,0,0,0-.126-4.069,3.728,3.728,0,0,0-4-3.1,3.629,3.629,0,0,0-3.193,1.525,6.994,6.994,0,0,0-.691,4.078,13.8,13.8,0,0,1-.051,2.359,4.961,4.961,0,0,1-.244.986c-.093.244-.564.851-.379.977a4.555,4.555,0,0,0,2.721.6,3.361,3.361,0,0,1-.051,1.331c-.236.607-2,.767-2.528.944a3.51,3.51,0,0,0-2.57,3.37h6.7c.11,0,.531-.784.649-.91A7.4,7.4,0,0,1,41.377,173.508Zm25.781-.893c-.682-.219-2-.286-2.485-.876-.244-.295-.11-1.045-.084-1.4a5.356,5.356,0,0,0,1.154-.076,5.185,5.185,0,0,0,1.011-.236,3.027,3.027,0,0,0,.447-.2c.329-.194.177-.227.008-.514-.918-1.542-.506-3.5-.548-5.19a4.3,4.3,0,0,0-1.685-3.741,4.828,4.828,0,0,0-4.1-.236c-3.572,1.432-1.466,6.167-2.688,8.88-.211.455-.514.615.017.885a4.113,4.113,0,0,0,.935.329,7.471,7.471,0,0,0,1.5.2,4.174,4.174,0,0,1,0,1.171c-.093.413-.994.531-1.331.623s-.918.118-1.087.48c-.253.539.834.4,1.1.455a5.267,5.267,0,0,1,2.309,1.188A3.777,3.777,0,0,1,63,176h6.757A3.563,3.563,0,0,0,67.159,172.615Z" transform="translate(0 -43.722)"/>
  </g>
</svg>
