<svg id="Layer_2" data-name="Layer 2" xmlns="http://www.w3.org/2000/svg" width="30.5" height="30.59" viewBox="0 0 30.5 30.59">
  <g id="Layer_1" data-name="Layer 1">
    <path id="Path_1302" data-name="Path 1302" d="M21,3.22A13.39,13.39,0,0,1,28.59,14H30.5A15.31,15.31,0,0,0,15.25,0h-.84l4.86,4.9Zm-9.36,1.2L26.15,18.93l-7.29,7.29L4.35,11.7l7.29-7.28m0-2.75a1.91,1.91,0,0,0-1.35.56L2.17,10.35a1.91,1.91,0,0,0,0,2.71L17.51,28.4a2,2,0,0,0,1.36.56,1.91,1.91,0,0,0,1.35-.56l8.11-8.12a1.9,1.9,0,0,0,0-2.71L13,2.23a1.91,1.91,0,0,0-1.35-.56ZM9.53,27.42A13.41,13.41,0,0,1,1.91,16.59H0a15.31,15.31,0,0,0,15.25,14h.84l-4.86-4.86Z" fill="#1c1b20"/>
  </g>
</svg>
