<svg id="send" xmlns="http://www.w3.org/2000/svg" width="34.736" height="34.736" viewBox="0 0 34.736 34.736">
  <path id="Path_83" data-name="Path 83" d="M34.519.217A2.754,2.754,0,0,0,33.216,0L.651,13.026a1.23,1.23,0,0,0,0,2.171l10.2,4.993v6.947a1.128,1.128,0,0,0,.434.868.8.8,0,0,0,.651.217c.217,0,.434,0,.434-.217l3.474-1.737,3.908,7.816c0,.434.434.651.868.651h0c.434,0,.868-.217.868-.651L25.835,23.23a1.03,1.03,0,0,0-1.954-.651l-3.474,8.684L15.414,20.842l15.2-15.2L25.4,18.671a1.03,1.03,0,1,0,1.954.651l7.381-17.8A2.754,2.754,0,0,0,34.519.217ZM29.091,4.125l-15.2,15.2-10.2-4.993ZM13.026,25.4V21.276l.217.217,1.52,3.039Z" transform="translate(0)" fill="#fb5151"/>
</svg>
