<svg xmlns="http://www.w3.org/2000/svg" width="15" height="15" viewBox="0 0 15 15">
  <path id="square-instagram" d="M7.5,37.714A1.786,1.786,0,1,0,9.287,39.5,1.786,1.786,0,0,0,7.5,37.714Zm4.176-1.373a1.808,1.808,0,0,0-1.018-1.018A11.882,11.882,0,0,0,7.5,35.108a11.794,11.794,0,0,0-3.158.215,1.808,1.808,0,0,0-1.018,1.018A11.906,11.906,0,0,0,3.109,39.5a11.859,11.859,0,0,0,.217,3.159,1.808,1.808,0,0,0,1.018,1.018,11.884,11.884,0,0,0,3.158.215,11.79,11.79,0,0,0,3.157-.215,1.808,1.808,0,0,0,1.018-1.018,11.809,11.809,0,0,0,.215-3.158,11.815,11.815,0,0,0-.215-3.158ZM7.5,42.246a2.742,2.742,0,1,1,1.942-.8,2.746,2.746,0,0,1-1.942.8Zm2.859-4.965a.637.637,0,1,1,.454-.187.641.641,0,0,1-.454.187ZM13.393,32H1.607A1.607,1.607,0,0,0,0,33.607V45.393A1.607,1.607,0,0,0,1.607,47H13.393A1.607,1.607,0,0,0,15,45.393V33.607A1.607,1.607,0,0,0,13.393,32Zm-.573,9.71a3.186,3.186,0,0,1-.866,2.243,3.187,3.187,0,0,1-2.243.866c-.884.05-3.535.05-4.42,0a3.192,3.192,0,0,1-2.243-.866,3.176,3.176,0,0,1-.866-2.243c-.05-.885-.05-3.536,0-4.42a3.175,3.175,0,0,1,.866-2.243,3.193,3.193,0,0,1,2.243-.863c.884-.05,3.535-.05,4.42,0a3.188,3.188,0,0,1,2.243.866,3.188,3.188,0,0,1,.866,2.245C12.869,38.175,12.869,40.825,12.82,41.71Z" transform="translate(0 -32)" fill="#c8fb51"/>
</svg>
