<svg id="stall_1_" data-name="stall (1)" xmlns="http://www.w3.org/2000/svg" width="23.729" height="24.26" viewBox="0 0 23.729 24.26">
  <rect id="Rectangle_96" data-name="Rectangle 96" width="0.934" height="8.99" transform="translate(3.38 2.378)" fill="#f2a438"/>
  <rect id="Rectangle_97" data-name="Rectangle 97" width="0.934" height="8.99" transform="translate(19.414 2.378)" fill="#f2a438"/>
  <path id="Path_113" data-name="Path 113" d="M21.094,27.021v1.652a1.318,1.318,0,0,0,1.318,1.318h0a1.318,1.318,0,0,0,1.318-1.318V27.021Z" transform="translate(-21.094 -25.318)" fill="#dc453a"/>
  <path id="Path_114" data-name="Path 114" d="M31.962,27.021v1.652a1.318,1.318,0,0,0,1.318,1.318h0A1.318,1.318,0,0,0,34.6,28.673V27.021Z" transform="translate(-29.326 -25.318)" fill="#ededed"/>
  <path id="Path_115" data-name="Path 115" d="M42.83,27.021v1.652a1.318,1.318,0,0,0,1.318,1.318h0a1.318,1.318,0,0,0,1.318-1.318V27.021Z" transform="translate(-37.557 -25.318)" fill="#dc453a"/>
  <path id="Path_116" data-name="Path 116" d="M53.7,27.021v1.652a1.318,1.318,0,0,0,1.318,1.318h0a1.318,1.318,0,0,0,1.318-1.318V27.021Z" transform="translate(-45.788 -25.318)" fill="#ededed"/>
  <path id="Path_117" data-name="Path 117" d="M64.566,27.021v1.652a1.318,1.318,0,0,0,1.318,1.318h0A1.318,1.318,0,0,0,67.2,28.673V27.021Z" transform="translate(-54.02 -25.318)" fill="#dc453a"/>
  <path id="Path_118" data-name="Path 118" d="M75.434,27.021v1.652a1.318,1.318,0,0,0,1.318,1.318h0a1.318,1.318,0,0,0,1.318-1.318V27.021Z" transform="translate(-62.251 -25.318)" fill="#ededed"/>
  <path id="Path_119" data-name="Path 119" d="M86.3,27.021v1.652a1.318,1.318,0,0,0,1.318,1.318h0a1.318,1.318,0,0,0,1.318-1.318V27.021Z" transform="translate(-70.483 -25.318)" fill="#dc453a"/>
  <path id="Path_120" data-name="Path 120" d="M97.17,27.021v1.652a1.318,1.318,0,0,0,1.318,1.318h0a1.318,1.318,0,0,0,1.318-1.318V27.021Z" transform="translate(-78.714 -25.318)" fill="#ededed"/>
  <path id="Path_121" data-name="Path 121" d="M108.038,27.021v1.652a1.318,1.318,0,0,0,1.318,1.318h0a1.318,1.318,0,0,0,1.318-1.318V27.021Z" transform="translate(-86.946 -25.318)" fill="#dc453a"/>
  <rect id="Rectangle_98" data-name="Rectangle 98" width="2.637" height="1.703" fill="#ee4b3f"/>
  <rect id="Rectangle_99" data-name="Rectangle 99" width="2.637" height="1.703" transform="translate(2.637)" fill="#fff"/>
  <rect id="Rectangle_100" data-name="Rectangle 100" width="2.637" height="1.703" transform="translate(5.273)" fill="#ee4b3f"/>
  <rect id="Rectangle_101" data-name="Rectangle 101" width="2.637" height="1.703" transform="translate(7.91)" fill="#fff"/>
  <rect id="Rectangle_102" data-name="Rectangle 102" width="2.637" height="1.703" transform="translate(10.546)" fill="#ee4b3f"/>
  <rect id="Rectangle_103" data-name="Rectangle 103" width="2.637" height="1.703" transform="translate(13.183)" fill="#fff"/>
  <rect id="Rectangle_104" data-name="Rectangle 104" width="2.637" height="1.703" transform="translate(15.819)" fill="#ee4b3f"/>
  <rect id="Rectangle_105" data-name="Rectangle 105" width="2.637" height="1.703" transform="translate(18.456)" fill="#fff"/>
  <rect id="Rectangle_106" data-name="Rectangle 106" width="2.637" height="1.703" transform="translate(21.092)" fill="#ee4b3f"/>
  <path id="Path_122" data-name="Path 122" d="M33.272,74.788V85.107a.649.649,0,0,0,.65.649H50.443a.649.649,0,0,0,.65-.649V74.788Z" transform="translate(-30.318 -61.497)" fill="#5e6672"/>
  <path id="Path_123" data-name="Path 123" d="M47.558,66.859H28.88a.84.84,0,0,0-.84.84v9.288a.84.84,0,0,0,.84.84H47.558a.84.84,0,0,0,.84-.84V67.7A.84.84,0,0,0,47.558,66.859Z" transform="translate(-26.355 -55.491)" fill="#2a9fe8"/>
</svg>
