<svg xmlns="http://www.w3.org/2000/svg" width="24.453" height="25" viewBox="0 0 24.453 25">
  <g id="stall_1_" data-name="stall (1)" transform="translate(-21.094 -20)">
    <rect id="Rectangle_96" data-name="Rectangle 96" width="0.963" height="9.264" transform="translate(24.577 22.45)" fill="#f2a438"/>
    <rect id="Rectangle_97" data-name="Rectangle 97" width="0.963" height="9.264" transform="translate(41.101 22.45)" fill="#f2a438"/>
    <path id="Path_113" data-name="Path 113" d="M21.094,27.021v1.7a1.359,1.359,0,0,0,1.358,1.358h0a1.359,1.359,0,0,0,1.358-1.358v-1.7Z" transform="translate(0 -5.266)" fill="#dc453a"/>
    <path id="Path_114" data-name="Path 114" d="M31.962,27.021v1.7a1.359,1.359,0,0,0,1.358,1.358h0a1.359,1.359,0,0,0,1.358-1.358v-1.7Z" transform="translate(-8.151 -5.266)" fill="#ededed"/>
    <path id="Path_115" data-name="Path 115" d="M42.83,27.021v1.7a1.359,1.359,0,0,0,1.358,1.358h0a1.359,1.359,0,0,0,1.358-1.358v-1.7Z" transform="translate(-16.302 -5.266)" fill="#dc453a"/>
    <path id="Path_116" data-name="Path 116" d="M53.7,27.021v1.7a1.359,1.359,0,0,0,1.358,1.358h0a1.359,1.359,0,0,0,1.358-1.358v-1.7Z" transform="translate(-24.453 -5.266)" fill="#ededed"/>
    <path id="Path_117" data-name="Path 117" d="M64.566,27.021v1.7a1.359,1.359,0,0,0,1.358,1.358h0a1.359,1.359,0,0,0,1.358-1.358v-1.7Z" transform="translate(-32.604 -5.266)" fill="#dc453a"/>
    <path id="Path_118" data-name="Path 118" d="M75.434,27.021v1.7a1.359,1.359,0,0,0,1.358,1.358h0a1.359,1.359,0,0,0,1.358-1.358v-1.7Z" transform="translate(-40.755 -5.266)" fill="#ededed"/>
    <path id="Path_119" data-name="Path 119" d="M86.3,27.021v1.7a1.359,1.359,0,0,0,1.358,1.358h0a1.359,1.359,0,0,0,1.358-1.358v-1.7Z" transform="translate(-48.906 -5.266)" fill="#dc453a"/>
    <path id="Path_120" data-name="Path 120" d="M97.17,27.021v1.7a1.359,1.359,0,0,0,1.358,1.358h0a1.359,1.359,0,0,0,1.358-1.358v-1.7Z" transform="translate(-57.057 -5.266)" fill="#ededed"/>
    <path id="Path_121" data-name="Path 121" d="M108.038,27.021v1.7a1.359,1.359,0,0,0,1.358,1.358h0a1.359,1.359,0,0,0,1.358-1.358v-1.7Z" transform="translate(-65.208 -5.266)" fill="#dc453a"/>
    <rect id="Rectangle_98" data-name="Rectangle 98" width="2.717" height="1.755" transform="translate(21.094 20)" fill="#ee4b3f"/>
    <rect id="Rectangle_99" data-name="Rectangle 99" width="2.717" height="1.755" transform="translate(23.811 20)" fill="#fff"/>
    <rect id="Rectangle_100" data-name="Rectangle 100" width="2.717" height="1.755" transform="translate(26.528 20)" fill="#ee4b3f"/>
    <rect id="Rectangle_101" data-name="Rectangle 101" width="2.717" height="1.755" transform="translate(29.245 20)" fill="#fff"/>
    <rect id="Rectangle_102" data-name="Rectangle 102" width="2.717" height="1.755" transform="translate(31.962 20)" fill="#ee4b3f"/>
    <rect id="Rectangle_103" data-name="Rectangle 103" width="2.717" height="1.755" transform="translate(34.679 20)" fill="#fff"/>
    <rect id="Rectangle_104" data-name="Rectangle 104" width="2.717" height="1.755" transform="translate(37.396 20)" fill="#ee4b3f"/>
    <rect id="Rectangle_105" data-name="Rectangle 105" width="2.717" height="1.755" transform="translate(40.113 20)" fill="#fff"/>
    <rect id="Rectangle_106" data-name="Rectangle 106" width="2.717" height="1.755" transform="translate(42.83 20)" fill="#ee4b3f"/>
    <path id="Path_122" data-name="Path 122" d="M33.272,74.788V85.422a.669.669,0,0,0,.669.669H50.967a.669.669,0,0,0,.669-.669V74.788Z" transform="translate(-9.134 -41.091)" fill="#5e6672"/>
    <path id="Path_123" data-name="Path 123" d="M48.154,66.859H28.906a.866.866,0,0,0-.866.866V77.3a.866.866,0,0,0,.866.866H48.154a.866.866,0,0,0,.866-.866V67.725A.866.866,0,0,0,48.154,66.859Z" transform="translate(-5.209 -35.144)" fill="#2a9fe8"/>
  </g>
</svg>
