<svg xmlns="http://www.w3.org/2000/svg" width="34.303" height="19.395" viewBox="0 0 34.303 19.395">
  <path id="view" d="M26.472,27A20.144,20.144,0,0,0,9.32,36.7a20.017,20.017,0,0,0,34.3,0A20.144,20.144,0,0,0,26.472,27Zm0,16.865A7.168,7.168,0,1,1,33.639,36.7,7.178,7.178,0,0,1,26.472,43.865Zm0-12.649A5.481,5.481,0,1,0,31.953,36.7,5.486,5.486,0,0,0,26.472,31.216Zm0,3.373a2.087,2.087,0,0,0-1.328.485l-.3.3a2.087,2.087,0,0,0-.485,1.328.843.843,0,0,1-1.686,0A3.8,3.8,0,0,1,26.472,32.9a.843.843,0,1,1,0,1.687Z" transform="translate(-9.32 -27)" fill="#2a9fe8"/>
</svg>
