<svg xmlns="http://www.w3.org/2000/svg" width="37.219" height="25.931" viewBox="0 0 37.219 25.931">
  <g id="Icons" transform="translate(-0.5 -4.093)">
    <g id="XMLID_1980_" transform="translate(1 4.521)">
      <path id="XMLID_1924_" d="M25.071,22.783l-.315-.315a1.713,1.713,0,0,0-2.362,0l-.315.315L22,21.445l.394-.472a1.713,1.713,0,0,1,2.362,0l.394.472Z" transform="translate(-5.465 -7.919)" fill="#e8f4fa" stroke="#45413c" stroke-linecap="round" stroke-linejoin="round" stroke-miterlimit="10" stroke-width="1"/>
      <path id="XMLID_1923_" d="M1,17.834,6.433,7.756a4.922,4.922,0,0,1,2.6-2.283l2.047-.787a.764.764,0,0,1,1.024.866A3.6,3.6,0,0,1,9.031,8.386,1.9,1.9,0,0,0,7.614,9.409L2.575,19.488Z" transform="translate(-1 -4.544)" fill="#87898c"/>
      <path id="XMLID_1922_" d="M44,17.834,38.562,7.756a4.922,4.922,0,0,0-2.6-2.283l-2.047-.787a.764.764,0,0,0-1.024.866,3.6,3.6,0,0,0,3.071,2.835,1.9,1.9,0,0,1,1.417,1.024l5.039,10.078Z" transform="translate(-7.776 -4.544)" fill="#87898c"/>
      <path id="XMLID_1921_" d="M6.433,9.308a4.922,4.922,0,0,1,2.6-2.283l2.047-.787a.9.9,0,0,1,.787.079,2.821,2.821,0,0,0,.315-.866.745.745,0,0,0-1.024-.866L9.11,5.371A4.945,4.945,0,0,0,6.433,7.733L1,17.811l.551.551L6.433,9.308Z" transform="translate(-1 -4.521)" fill="#bdbec0"/>
      <path id="XMLID_1920_" d="M33.13,6.338a.709.709,0,0,1,.787-.079l2.047.787a4.922,4.922,0,0,1,2.6,2.283l4.882,9.055L44,17.834,38.562,7.756a4.922,4.922,0,0,0-2.6-2.283l-2.047-.787a.764.764,0,0,0-1.024.866,2.311,2.311,0,0,0,.236.787Z" transform="translate(-7.776 -4.544)" fill="#bdbec0"/>
      <path id="XMLID_1919_" d="M1,17.834,6.433,7.756a4.922,4.922,0,0,1,2.6-2.283l2.047-.787a.764.764,0,0,1,1.024.866A3.6,3.6,0,0,1,9.031,8.386,1.9,1.9,0,0,0,7.614,9.409L2.575,19.488Z" transform="translate(-1 -4.544)" fill="none" stroke="#45413c" stroke-linecap="round" stroke-linejoin="round" stroke-miterlimit="10" stroke-width="1"/>
      <path id="XMLID_1913_" d="M44,17.834,38.562,7.756a4.922,4.922,0,0,0-2.6-2.283l-2.047-.787a.764.764,0,0,0-1.024.866,3.6,3.6,0,0,0,3.071,2.835,1.9,1.9,0,0,1,1.417,1.024l5.039,10.078Z" transform="translate(-7.776 -4.544)" fill="none" stroke="#45413c" stroke-linecap="round" stroke-linejoin="round" stroke-miterlimit="10" stroke-width="1"/>
      <path id="XMLID_1912_" d="M1.709,23.256H3.756V20.5H1.709A.706.706,0,0,0,1,21.209v1.339A.706.706,0,0,0,1.709,23.256Z" transform="translate(-1 -7.919)" fill="#e8f4fa" stroke="#45413c" stroke-linecap="round" stroke-linejoin="round" stroke-miterlimit="10" stroke-width="1"/>
      <path id="XMLID_1911_" d="M45.547,23.256H43.5V20.5h2.047a.706.706,0,0,1,.709.709v1.339A.706.706,0,0,1,45.547,23.256Z" transform="translate(-10.036 -7.919)" fill="#e8f4fa" stroke="#45413c" stroke-linecap="round" stroke-linejoin="round" stroke-miterlimit="10" stroke-width="1"/>
      <path id="XMLID_1909_" d="M3.787,22.543S3,22.622,3,21.362,3.866,19,10.874,19s7.48,1.653,7.48,2.756-.787.787-.787.787Z" transform="translate(-1.425 -7.6)" fill="#87898c"/>
      <path id="XMLID_1908_" d="M40.066,22.543s.787.079.787-1.181S39.988,19,32.98,19s-7.48,1.653-7.48,2.756.787.787.787.787Z" transform="translate(-6.209 -7.6)" fill="#87898c"/>
      <path id="XMLID_1907_" d="M10.874,20.317c5.512,0,7.008,1.024,7.323,1.968a1.22,1.22,0,0,0,.157-.63c0-1.1-.472-2.756-7.48-2.756S3,20.081,3,21.341a1.572,1.572,0,0,0,.157.709c.394-.945,1.968-1.732,7.716-1.732Z" transform="translate(-1.425 -7.579)" fill="#bdbec0"/>
      <path id="XMLID_1906_" d="M32.98,20.339c5.748,0,7.323.787,7.716,1.732a1.572,1.572,0,0,0,.157-.709c0-1.26-.866-2.362-7.874-2.362s-7.48,1.653-7.48,2.756a1.22,1.22,0,0,0,.157.63C25.972,21.362,27.468,20.339,32.98,20.339Z" transform="translate(-6.209 -7.6)" fill="#bdbec0"/>
      <path id="XMLID_1905_" d="M3.787,22.543S3,22.622,3,21.362,3.866,19,10.874,19s7.48,1.653,7.48,2.756-.787.787-.787.787Z" transform="translate(-1.425 -7.6)" fill="none" stroke="#45413c" stroke-linecap="round" stroke-linejoin="round" stroke-miterlimit="10" stroke-width="1"/>
      <path id="XMLID_1904_" d="M40.066,22.543s.787.079.787-1.181S39.988,19,32.98,19s-7.48,1.653-7.48,2.756.787.787.787.787Z" transform="translate(-6.209 -7.6)" fill="none" stroke="#45413c" stroke-linecap="round" stroke-linejoin="round" stroke-miterlimit="10" stroke-width="1"/>
      <path id="XMLID_1903_" d="M3.991,23.287a23.213,23.213,0,0,1,6.693-.787,28.307,28.307,0,0,1,7.086.787S18.007,31,15.8,32.342s-8.267,1.575-10.236-.787S3.991,23.287,3.991,23.287Z" transform="translate(-1.629 -8.344)" fill="#00b8f0"/>
      <path id="XMLID_1902_" d="M15.723,22.894a38.537,38.537,0,0,0-5.039-.394,23.213,23.213,0,0,0-6.693.787S3.6,29.193,5.566,31.555c.787,1.024,2.362,1.5,4.016,1.732Z" transform="translate(-1.629 -8.344)" fill="#4acfff"/>
      <path id="XMLID_1901_" d="M40.277,23.287a23.213,23.213,0,0,0-6.693-.787,28.307,28.307,0,0,0-7.086.787S26.262,31,28.466,32.342s8.267,1.575,10.236-.787S40.277,23.287,40.277,23.287Z" transform="translate(-6.42 -8.344)" fill="#00b8f0"/>
      <path id="XMLID_1900_" d="M33.584,22.5a28.307,28.307,0,0,0-7.086.787S26.262,31,28.466,32.342a9.584,9.584,0,0,0,3.543.945l6.142-10.472A31.646,31.646,0,0,0,33.584,22.5Z" transform="translate(-6.42 -8.344)" fill="#4acfff"/>
      <path id="XMLID_1899_" d="M3.991,23.287a23.213,23.213,0,0,1,6.693-.787,28.307,28.307,0,0,1,7.086.787S18.007,31,15.8,32.342s-8.267,1.575-10.236-.787S3.991,23.287,3.991,23.287Z" transform="translate(-1.629 -8.344)" fill="none" stroke="#45413c" stroke-linecap="round" stroke-linejoin="round" stroke-miterlimit="10" stroke-width="1"/>
      <path id="XMLID_1898_" d="M40.277,23.287a23.213,23.213,0,0,0-6.693-.787,28.307,28.307,0,0,0-7.086.787S26.262,31,28.466,32.342s8.267,1.575,10.236-.787S40.277,23.287,40.277,23.287Z" transform="translate(-6.42 -8.344)" fill="none" stroke="#45413c" stroke-linecap="round" stroke-linejoin="round" stroke-miterlimit="10" stroke-width="1"/>
    </g>
  </g>
</svg>
