<svg xmlns="http://www.w3.org/2000/svg" width="14" height="14.048" viewBox="0 0 14 14.048">
  <g id="Layer_2" data-name="Layer 2" transform="translate(-5 -4.885)" opacity="0.3">
    <g id="arrowhead-right" transform="translate(5 4.885)">
      <path id="Path_1078" data-name="Path 1078" d="M18.788,11.371l-4.779-6a1,1,0,0,0-1.56,1.26L16.718,12,12.24,17.369a1,1,0,1,0,1.54,1.27l5-6a1,1,0,0,0,.01-1.27Z" transform="translate(-5.01 -4.954)" fill="#23272d"/>
      <path id="Path_1079" data-name="Path 1079" d="M7,5.3a1.022,1.022,0,1,0-1.608,1.26l4.318,5.369L5.232,17.29a1,1,0,0,0,1.54,1.28l5-6a1,1,0,0,0,0-1.27Z" transform="translate(-5 -4.885)" fill="#23272d"/>
    </g>
  </g>
</svg>
