<svg xmlns="http://www.w3.org/2000/svg" width="519.814" height="587.979" viewBox="0 0 519.814 587.979">
  <g id="Exhibitors_Black" data-name="Exhibitors Black" transform="translate(-264.49 -247.012)">
    <g id="Group_981" data-name="Group 981">
      <path id="Path_1425" data-name="Path 1425" d="M658.55,382.81a63.026,63.026,0,0,1-89.17.14c-26.16,25.28-64.37,23.83-89.04-.33-12.17,12-26.86,18.68-44.11,18.72-17.3.05-32.12-6.35-44.21-18.46-5.22,3.71-9.9,7.78-15.22,10.69-41.26,22.6-91.2-6.63-91.41-54.33q-.165-36.99.01-73.98c.05-11.31,7.27-18.24,18.62-18.24q220.935-.015,441.86,0c10.89,0,18.35,6.76,18.41,17.39.15,25.99.63,52-.28,77.96-.92,25.94-14.39,44.62-38.24,54.29-23.87,9.68-46.07,5.07-65.37-12.28C659.8,383.84,659.16,383.33,658.55,382.81Z" fill="#fb5151"/>
      <path id="Path_1426" data-name="Path 1426" d="M307.51,697.06H284.66c-12.12-.01-20.5-7.05-20.16-17.27.27-8.03,6.54-17.11,19.99-17.09q203.955.36,407.92.15c24.5,0,48.99.04,73.49-.02,6.31-.02,11.35,2.27,14.95,7.48,3.79,5.48,4.81,11.16,1.29,17.28-3.33,5.79-8.07,9.3-14.84,9.43-8.12.15-16.25.04-25.1.04v5.76q0,56.49,0,112.98c0,12.5-6.59,19.18-19.01,19.18q-198.21.03-396.42,0c-12.66,0-19.26-6.73-19.26-19.49q-.015-56.235,0-112.48C307.51,701.21,307.51,699.42,307.51,697.06Zm217.27,34.61q-64.755,0-129.5.01c-10.9,0-18.73,7.14-18.83,17.06-.1,9.84,7.85,17.43,18.55,17.43q129.75.045,259.5-.06a22.678,22.678,0,0,0,9.12-1.96,16.725,16.725,0,0,0,9.29-19.1c-1.86-8.02-8.77-13.35-17.64-13.35Q590.035,731.625,524.78,731.67Z" fill="#fb5151"/>
      <path id="Path_1427" data-name="Path 1427" d="M426.15,627.76a102.528,102.528,0,0,1,33.96-50.07c16.05-13,34.45-20.44,55.17-23.06-21.05-5.11-36.53-16.69-45.07-36.71a57.129,57.129,0,0,1-2.66-37.66,59.1,59.1,0,0,1,57.99-44.63c26.56.12,50.63,18.76,56.92,44.17,4.21,17.02,1.9,33.11-7.67,47.88-9.42,14.54-23.2,22.88-40.03,26.77,44.09,6.95,73.6,30.96,89.24,73.31Z" fill="#fb5151"/>
      <path id="Path_1428" data-name="Path 1428" d="M708.24,436.74c11.26-2.71,22.33-5.36,33.64-8.08V627.64H708.24Z" fill="#fb5151"/>
      <path id="Path_1429" data-name="Path 1429" d="M307.89,428.65c11.17,2.7,22.23,5.37,33.83,8.17V627.7H307.89Z" fill="#fb5151"/>
    </g>
  </g>
</svg>
