<svg xmlns="http://www.w3.org/2000/svg" width="16" height="14.722" viewBox="0 0 16 14.722">
  <g id="event_4_" data-name="event (4)" transform="translate(-3 -4.038)">
    <path id="Path_1288" data-name="Path 1288" d="M4.382,21.867a.308.308,0,0,1-.273-.45L8.9,12.279a.308.308,0,0,1,.49-.074l4.351,4.351a.308.308,0,0,1-.074.49L4.525,21.833a.314.314,0,0,1-.142.034Zm4.865-8.932L5.112,20.83l7.895-4.135L9.247,12.935Z" transform="translate(-0.413 -3.106)" fill="rgba(35,39,45,0.5)"/>
    <path id="Path_1289" data-name="Path 1289" d="M7.79,21.213A.3.3,0,0,1,7.7,21.2l-1.719-.537a.308.308,0,1,1,.184-.587l1.719.537a.308.308,0,0,1-.092.6ZM9.839,20.14a.3.3,0,0,1-.092-.014l-3-.936a.308.308,0,1,1,.184-.587l3,.936a.308.308,0,0,1-.092.6Zm2.049-1.073a.3.3,0,0,1-.092-.014L7.522,17.717a.308.308,0,1,1,.184-.587l4.274,1.335a.308.308,0,0,1-.092.6Zm2.049-1.073a.3.3,0,0,1-.092-.014L8.292,16.244a.308.308,0,1,1,.184-.587l5.552,1.735a.308.308,0,0,1-.092.6Zm-2.007-2.34a.3.3,0,0,1-.092-.014l-2.774-.867a.308.308,0,1,1,.184-.587l2.774.867a.308.308,0,0,1-.092.6Z" transform="translate(-1.063 -3.897)" fill="rgba(35,39,45,0.5)"/>
    <path id="Path_1290" data-name="Path 1290" d="M6.385,9.576A.924.924,0,0,1,5.7,8.038a.921.921,0,0,1,0-1.231.924.924,0,0,1,.687-1.538.308.308,0,1,1,0,.615.308.308,0,1,0,0,.615.308.308,0,0,1,0,.615.308.308,0,1,0,0,.615.308.308,0,0,1,0,.615.308.308,0,0,0,0,.615.308.308,0,1,1,0,.615Zm8.45.652a.922.922,0,0,1-.653-.27.308.308,0,0,1,.435-.436.308.308,0,1,0,.435-.436.308.308,0,0,1,.435-.436.308.308,0,1,0,.435-.435.308.308,0,1,1,.435-.436.316.316,0,0,0,.435,0,.308.308,0,0,0,0-.435.308.308,0,0,1,.435-.436.924.924,0,0,1-.6,1.575.921.921,0,0,1-.871.871.919.919,0,0,1-.269.6.91.91,0,0,1-.651.271Zm-3.42,7.324a.308.308,0,0,1-.265-.151.922.922,0,0,1,.972-1.377.922.922,0,0,1,1.058-.628.923.923,0,0,1,1.674-.193.308.308,0,0,1-.53.314.307.307,0,1,0-.529.314.309.309,0,0,1-.529.314.309.309,0,0,0-.53.314.308.308,0,0,1-.53.314.309.309,0,0,0-.562.081.3.3,0,0,0,.034.233.307.307,0,0,1-.263.464ZM10.692,5.884a.924.924,0,1,1,.89-.923.924.924,0,0,1-.89.923Zm0-1.231A.308.308,0,1,0,11,4.961.308.308,0,0,0,10.692,4.653Zm4.923,1.231a.924.924,0,1,1,.89-.923A.924.924,0,0,1,15.615,5.884Zm0-1.231a.308.308,0,1,0,.309.308.308.308,0,0,0-.309-.308Zm2.462,7.385A.923.923,0,1,1,19,11.115.924.924,0,0,1,18.077,12.038Zm0-1.231a.308.308,0,1,0,.309.308A.308.308,0,0,0,18.077,10.807ZM3.923,14.5a.924.924,0,1,1,.89-.923A.924.924,0,0,1,3.923,14.5Zm0-1.231a.308.308,0,1,0,.309.308.308.308,0,0,0-.309-.308Zm12.308,4.923a.923.923,0,1,1,.923-.923A.924.924,0,0,1,16.231,18.192Zm0-1.231a.308.308,0,1,0,.309.308A.308.308,0,0,0,16.231,16.961Z" fill="rgba(35,39,45,0.5)"/>
    <path id="Path_1291" data-name="Path 1291" d="M20.147,13.669a.308.308,0,0,1-.231-.1,3.383,3.383,0,0,0-4.558-.487.308.308,0,0,1-.366-.494,4,4,0,0,1,5.387.575.308.308,0,0,1-.232.511Zm.869,1.844a.308.308,0,0,1-.3-.259,3.277,3.277,0,0,0-.151-.588.308.308,0,1,1,.581-.2,4.122,4.122,0,0,1,.178.7.308.308,0,0,1-.3.356ZM13,10.948a.308.308,0,0,1-.277-.442,3.383,3.383,0,0,0-.113-3.17.308.308,0,1,1,.533-.308,4.007,4.007,0,0,1,.134,3.746.308.308,0,0,1-.278.173Zm-.85-4.356a.306.306,0,0,1-.2-.078Q11.82,6.4,11.684,6.3a.308.308,0,0,1,.366-.5q.159.118.307.25a.308.308,0,0,1-.2.537Zm2.94,4.6a.308.308,0,0,1-.223-.52A4.591,4.591,0,0,0,16.141,7.49a4.642,4.642,0,0,0-.467-2.023.308.308,0,1,1,.553-.27,5.228,5.228,0,0,1-.913,5.9A.306.306,0,0,1,15.092,11.192Z" transform="translate(-3.295 -0.375)" fill="rgba(35,39,45,0.5)"/>
    <circle id="Ellipse_263" data-name="Ellipse 263" cx="0.308" cy="0.308" r="0.308" transform="translate(6.077 10.192)" fill="rgba(35,39,45,0.5)"/>
  </g>
</svg>
