<svg xmlns="http://www.w3.org/2000/svg" width="22" height="22" viewBox="0 0 22 22">
  <g id="Group_39" data-name="Group 39" transform="translate(-251 -240)">
    <rect id="Rectangle_34" data-name="Rectangle 34" width="22" height="22" rx="4" transform="translate(251 240)" fill="#23272d"/>
    <g id="marketing-growth" transform="translate(254.662 240.42)">
      <path id="Path_55" data-name="Path 55" d="M10.709,14.5h.031a.322.322,0,0,0,.322-.322V11.47A1.512,1.512,0,0,0,11.9,10.04a1.512,1.512,0,0,0-.841-1.429V5.9a.322.322,0,0,0-.322-.322h-.031a.322.322,0,0,0-.322.322v8.277A.322.322,0,0,0,10.709,14.5ZM2.483,15.58H3.9a.2.2,0,0,0,.2-.2.209.209,0,0,0-.113-.181l-.241-.128a.5.5,0,0,1-.25-.3l-.647-2.834H3.39V8.142l-2.552,0a.848.848,0,0,0-.848.845v2.105a.848.848,0,0,0,.848.845h.41l.794,3.331A.469.469,0,0,0,2.483,15.58Z" transform="translate(0 0)" fill="#fff"/>
      <path id="Path_56" data-name="Path 56" d="M18.26,6.99a25.34,25.34,0,0,1-6.4,2.1v3.85a25.165,25.165,0,0,1,6.4,2.1Zm2.305,4.019a.157.157,0,0,0,.156.156h1.964a.156.156,0,0,0,0-.313H20.721A.159.159,0,0,0,20.565,11.009Zm.05-1.092a.145.145,0,0,0,.072-.019l1.8-.945a.156.156,0,0,0,.066-.21.159.159,0,0,0-.21-.066l-1.8.945a.156.156,0,0,0,.072.294ZM20.543,12.4l1.8.945a.145.145,0,0,0,.072.019.159.159,0,0,0,.138-.081.156.156,0,0,0-.066-.21l-1.8-.945a.153.153,0,0,0-.21.066A.151.151,0,0,0,20.543,12.4Z" transform="translate(-8.157 -0.969)" fill="#fff"/>
    </g>
  </g>
</svg>
