<svg xmlns="http://www.w3.org/2000/svg" width="9.755" height="16.509" viewBox="0 0 9.755 16.509">
  <g id="mike" opacity="0.5">
    <path id="Path_167" data-name="Path 167" d="M24.127,32.49a3.629,3.629,0,0,0,3.627-3.627V26.79H20.5v2.074A3.629,3.629,0,0,0,24.127,32.49Z" transform="translate(-19.249 -20.589)" fill="#23272d"/>
    <path id="Path_168" data-name="Path 168" d="M25.255,7.983v2.291a4.883,4.883,0,0,1-4.022,4.8v1.984h.6a1.205,1.205,0,0,1,1.2,1.2.251.251,0,0,1-.25.25H17.966a.251.251,0,0,1-.25-.25,1.205,1.205,0,0,1,1.2-1.2h.6V15.072a4.883,4.883,0,0,1-4.022-4.8V7.983a.251.251,0,0,1,.25-.25h.5v2.541a4.127,4.127,0,0,0,8.254,0V7.733H25A.251.251,0,0,1,25.255,7.983ZM24,5.627a3.627,3.627,0,1,0-7.254,0V7.7H24Zm-5.565.764-.184.115a.25.25,0,1,1-.265-.424l.184-.115a.25.25,0,1,1,.265.424Zm.368-1.473-.184.115a.25.25,0,1,1-.265-.424l.184-.115a.25.25,0,0,1,.265.424Zm.207-1.253a.25.25,0,0,1,.08-.345l.184-.115a.25.25,0,0,1,.265.424l-.184.115a.25.25,0,0,1-.345-.08Zm.874,3.393-.184.115a.25.25,0,1,1-.265-.424l.184-.115a.25.25,0,0,1,.265.424Zm.092-1.519-.184.115a.25.25,0,1,1-.265-.424l.184-.115a.25.25,0,1,1,.265.424ZM20.6,4.362l-.184.115a.25.25,0,1,1-.265-.424l.184-.115a.25.25,0,0,1,.265.424Zm.23.832a.25.25,0,0,1,.345-.08l.184.115a.25.25,0,0,1-.265.424l-.184-.115A.25.25,0,0,1,20.832,5.195Zm.7,1.9a.25.25,0,0,1-.345.08L21,7.058a.25.25,0,1,1,.265-.424l.184.115A.25.25,0,0,1,21.533,7.094Zm.207-3.429a.25.25,0,0,1-.345.08l-.184-.115a.25.25,0,1,1,.265-.424l.184.115A.25.25,0,0,1,21.74,3.665Zm.207,1.253a.25.25,0,1,1,.265-.424l.184.115a.25.25,0,0,1-.265.424Zm.9,1.508a.25.25,0,0,1-.345.08l-.184-.115a.25.25,0,1,1,.265-.424l.184.115A.25.25,0,0,1,22.844,6.426Z" transform="translate(-15.5 -2)" fill="#23272d"/>
  </g>
</svg>
