<svg xmlns="http://www.w3.org/2000/svg" width="16" height="19.556" viewBox="0 0 16 19.556">
  <path id="notification" d="M11,20.556a1.778,1.778,0,0,0,1.778-1.778H9.222A1.778,1.778,0,0,0,11,20.556ZM3.889,17H18.111a.889.889,0,0,0,.628-1.517l-1.517-1.517V9a6.228,6.228,0,0,0-5.333-6.151v-.96a.889.889,0,1,0-1.778,0v.96A6.228,6.228,0,0,0,4.778,9v4.965L3.26,15.483A.889.889,0,0,0,3.889,17ZM6.3,14.962a.889.889,0,0,0,.26-.628V9a4.445,4.445,0,0,1,8.889,0v5.333a.889.889,0,0,0,.26.628l.261.261H6.035Z" transform="translate(-3 -1)" fill="#23272d" opacity="0.5"/>
</svg>
