<svg xmlns="http://www.w3.org/2000/svg" width="22" height="22" viewBox="0 0 22 22">
  <g id="Group_365" data-name="Group 365" transform="translate(10232 -7619)">
    <rect id="Rectangle_34" data-name="Rectangle 34" width="22" height="22" rx="4" transform="translate(-10232 7619)" fill="#23272d"/>
    <path id="report" d="M8.182,2A1.363,1.363,0,0,0,6.9,2.909H5.909A.909.909,0,0,0,5,3.818v10a.909.909,0,0,0,.909.909h8.182A.909.909,0,0,0,15,13.818v-10a.909.909,0,0,0-.909-.909H13.1A1.363,1.363,0,0,0,11.818,2ZM5.909,3.818H6.9a1.363,1.363,0,0,0,1.285.909h3.636A1.363,1.363,0,0,0,13.1,3.818h.988v10H5.909ZM7.727,5.636a.909.909,0,0,0-.909.909v.909a.909.909,0,0,0,.909.909h4.545a.909.909,0,0,0,.909-.909V6.545a.909.909,0,0,0-.909-.909ZM7.273,9.727v.909h5.455V9.727Zm0,1.818v.909h5.455v-.909Z" transform="translate(-10231 7621.637)" fill="#fff" fill-rule="evenodd"/>
  </g>
</svg>
