<svg xmlns="http://www.w3.org/2000/svg" width="17" height="15.667" viewBox="0 0 17 15.667">
  <g id="Group_674" data-name="Group 674" transform="translate(10147.25 -14489.313)">
    <path id="Path_1042" data-name="Path 1042" d="M33.333,48.3V54a.666.666,0,0,0,.667.667H46A.666.666,0,0,0,46.667,54V48.3M33.835,40H46.165a.666.666,0,0,1,.64.483L48,44.665H32l1.195-4.181A.666.666,0,0,1,33.835,40Z" transform="translate(-10178.75 14449.813)" fill="none" stroke="rgba(35,39,45,0.5)" stroke-linecap="round" stroke-linejoin="round" stroke-width="1"/>
    <path id="Path_1043" data-name="Path 1043" d="M37.333,96v1.333a2.667,2.667,0,0,1-5.333,0V96m10.667,0v1.333a2.667,2.667,0,0,1-5.333,0V96M48,96v1.333a2.667,2.667,0,0,1-5.333,0V96" transform="translate(-10178.75 14398.479)" fill="none" stroke="rgba(35,39,45,0.5)" stroke-linecap="round" stroke-linejoin="round" stroke-width="1"/>
  </g>
</svg>
