<svg xmlns="http://www.w3.org/2000/svg" width="16" height="9.799" viewBox="0 0 16 9.799">
  <path id="video_3_" data-name="video (3)" d="M56.826,128H48.367A1.321,1.321,0,0,0,47,129.252v7.192a1.409,1.409,0,0,0,1.367,1.355h8.459a1.33,1.33,0,0,0,1.275-1.355v-7.192A1.241,1.241,0,0,0,56.826,128Zm.624,8.444a.678.678,0,0,1-.624.7H48.367a.759.759,0,0,1-.716-.7v-7.192a.655.655,0,0,1,.7-.593l8.459,0a.59.59,0,0,1,.635.589Zm1.8-5.19v3.277L63,136.574v-7.349Zm3.1-.88v5.064l-2.45-1.282v-2.511l2.454-1.286Z" transform="translate(-47 -128)" fill="rgba(35,39,45,0.5)"/>
</svg>
