<svg xmlns="http://www.w3.org/2000/svg" width="22" height="22" viewBox="0 0 22 22">
  <path id="views" d="M1.25,6.11A4.86,4.86,0,0,1,6.11,1.25H18.39a4.86,4.86,0,0,1,4.86,4.86V18.39a4.86,4.86,0,0,1-4.86,4.86H6.11a4.86,4.86,0,0,1-4.86-4.86Zm5.884,6.14-.513.571a.767.767,0,0,1,0-1.142Zm10.233,0,.512.571h0l0,0-.008.008-.031.028-.117.1c-.1.087-.245.211-.424.359-.356.3-.851.69-1.4,1.087a14.6,14.6,0,0,1-1.776,1.115,4.328,4.328,0,0,1-1.866.565,4.328,4.328,0,0,1-1.866-.565,14.591,14.591,0,0,1-1.776-1.115c-.552-.4-1.047-.792-1.4-1.087-.178-.148-.323-.272-.424-.359l-.117-.1-.031-.028-.009-.008,0,0h0l.512-.571-.512-.571h0l0,0,.009-.008.031-.028.117-.1c.1-.087.245-.211.424-.359.356-.3.851-.69,1.4-1.087a14.6,14.6,0,0,1,1.776-1.115,4.328,4.328,0,0,1,1.866-.565,4.328,4.328,0,0,1,1.866.565,14.6,14.6,0,0,1,1.776,1.115c.552.4,1.047.792,1.4,1.087.178.148.323.272.424.359l.117.1.031.028.008.008,0,0h0Zm0,0,.513-.571a.767.767,0,0,1,0,1.142Zm-9.047,0c.323.264.735.588,1.185.912a13.1,13.1,0,0,0,1.582,1,2.943,2.943,0,0,0,1.163.395,2.943,2.943,0,0,0,1.163-.395,13.1,13.1,0,0,0,1.582-1c.45-.323.862-.648,1.185-.912-.323-.264-.735-.588-1.185-.912a13.1,13.1,0,0,0-1.582-1,2.943,2.943,0,0,0-1.163-.395,2.943,2.943,0,0,0-1.163.395,13.1,13.1,0,0,0-1.582,1C9.054,11.662,8.642,11.986,8.32,12.25Zm4.7-.512a.767.767,0,1,0-1.535,0v1.023a.767.767,0,1,0,1.535,0Z" transform="translate(-1.25 -1.25)" fill="#23272d" fill-rule="evenodd"/>
</svg>
