<svg xmlns="http://www.w3.org/2000/svg" width="19.308" height="18.813" viewBox="0 0 19.308 18.813">
  <path id="person_FILL0_wght300_GRAD0_opsz24" d="M189.655-763.3a4.338,4.338,0,0,1-3.182-1.323,4.338,4.338,0,0,1-1.323-3.182,4.338,4.338,0,0,1,1.323-3.182,4.338,4.338,0,0,1,3.182-1.323,4.338,4.338,0,0,1,3.182,1.323,4.338,4.338,0,0,1,1.323,3.182,4.338,4.338,0,0,1-1.323,3.182A4.338,4.338,0,0,1,189.655-763.3ZM180-755.449v-.906a3.2,3.2,0,0,1,.514-1.751,3.429,3.429,0,0,1,1.373-1.239,18.674,18.674,0,0,1,3.851-1.4,16.669,16.669,0,0,1,3.917-.468,16.669,16.669,0,0,1,3.917.468,18.674,18.674,0,0,1,3.851,1.4,3.429,3.429,0,0,1,1.373,1.239,3.2,3.2,0,0,1,.514,1.751v.906a1.886,1.886,0,0,1-.571,1.385,1.886,1.886,0,0,1-1.385.571h-15.4a1.886,1.886,0,0,1-1.385-.571A1.886,1.886,0,0,1,180-755.449Zm1.931.025h15.447v-.931a1.262,1.262,0,0,0-.227-.724,1.715,1.715,0,0,0-.615-.543,16.54,16.54,0,0,0-3.392-1.241,14.665,14.665,0,0,0-3.489-.422,14.665,14.665,0,0,0-3.489.422,16.54,16.54,0,0,0-3.392,1.241,1.714,1.714,0,0,0-.615.543,1.262,1.262,0,0,0-.227.724Zm7.723-9.8a2.479,2.479,0,0,0,1.818-.756,2.479,2.479,0,0,0,.756-1.818,2.479,2.479,0,0,0-.756-1.818,2.479,2.479,0,0,0-1.818-.756,2.479,2.479,0,0,0-1.818.756,2.479,2.479,0,0,0-.756,1.818,2.479,2.479,0,0,0,.756,1.818A2.479,2.479,0,0,0,189.655-765.226ZM189.655-767.8ZM189.655-755.424Z" transform="translate(-180.001 772.306)" fill="#fff"/>
</svg>
