<svg xmlns="http://www.w3.org/2000/svg" width="22.022" height="19.796" viewBox="0 0 22.022 19.796">
  <path id="attachment" d="M22.438,17.151V8.779a.65.65,0,1,0-1.3,0v8.372A3.824,3.824,0,0,1,17.469,21.1,3.824,3.824,0,0,1,13.8,17.151V6.453A2.477,2.477,0,0,1,16.173,3.9a2.477,2.477,0,0,1,2.377,2.558v10a1.083,1.083,0,1,1-2.161,0V7.384a.65.65,0,1,0-1.3,0v9.07a2.477,2.477,0,0,0,2.377,2.558,2.477,2.477,0,0,0,2.377-2.558v-10A3.824,3.824,0,0,0,16.173,2.5,3.824,3.824,0,0,0,12.5,6.453v10.7A5.176,5.176,0,0,0,17.469,22.5,5.176,5.176,0,0,0,22.438,17.151Z" transform="matrix(0.588, 0.809, -0.809, 0.588, 10.856, -11.582)" fill="#fff"/>
</svg>
