<svg xmlns="http://www.w3.org/2000/svg" width="17.682" height="20" viewBox="0 0 17.682 20">
  <g id="Exhibitors_Black" data-name="Exhibitors Black" transform="translate(-264.49 -247.013)">
    <g id="Group_981" data-name="Group 981" transform="translate(264.49 247.013)">
      <path id="Path_1425" data-name="Path 1425" d="M298.008,251.632a2.144,2.144,0,0,1-3.033,0,2.133,2.133,0,0,1-3.029-.011,2.086,2.086,0,0,1-1.5.637,2.052,2.052,0,0,1-1.5-.628,5.527,5.527,0,0,1-.518.364,2.094,2.094,0,0,1-3.109-1.848q-.006-1.258,0-2.516a.584.584,0,0,1,.633-.62h15.03a.576.576,0,0,1,.626.592c.005.884.021,1.769-.01,2.652a1.958,1.958,0,0,1-1.3,1.847,2,2,0,0,1-2.224-.418C298.05,251.667,298.029,251.649,298.008,251.632Z" transform="translate(-284.604 -247.013)" fill="#1c1b20"/>
      <path id="Path_1426" data-name="Path 1426" d="M265.953,663.869h-.777c-.412,0-.7-.24-.686-.587a.621.621,0,0,1,.68-.581q6.937.012,13.875.005c.833,0,1.666,0,2.5,0a.575.575,0,0,1,.508.254.511.511,0,0,1,.044.588.572.572,0,0,1-.5.321c-.276.005-.553,0-.854,0v.2q0,1.922,0,3.843a.582.582,0,0,1-.647.652H266.608a.588.588,0,0,1-.655-.663q0-1.913,0-3.826Zm7.39,1.177h-4.4a.589.589,0,1,0-.009,1.173q4.413,0,8.827,0a.771.771,0,0,0,.31-.067.569.569,0,0,0,.316-.65.59.59,0,0,0-.6-.454Q275.563,665.044,273.344,665.046Z" transform="translate(-264.49 -648.56)" fill="#1c1b20"/>
      <path id="Path_1427" data-name="Path 1427" d="M426.15,442.165a3.488,3.488,0,0,1,1.155-1.7,3.635,3.635,0,0,1,1.877-.784,2.093,2.093,0,0,1-1.533-1.249,1.944,1.944,0,0,1-.09-1.281,2.021,2.021,0,1,1,3.648,1.613,2.109,2.109,0,0,1-1.362.911,3.62,3.62,0,0,1,3.035,2.494Z" transform="translate(-420.651 -429.214)" fill="#1c1b20"/>
      <path id="Path_1428" data-name="Path 1428" d="M708.24,428.935l1.144-.275v6.768H708.24Z" transform="translate(-693.146 -422.481)" fill="#1c1b20"/>
      <path id="Path_1429" data-name="Path 1429" d="M307.89,428.65l1.151.278v6.493H307.89Z" transform="translate(-306.414 -422.472)" fill="#1c1b20"/>
    </g>
  </g>
</svg>
