<svg xmlns="http://www.w3.org/2000/svg" width="80.62" height="80" viewBox="0 0 80.62 80">
  <g id="Group_154" data-name="Group 154" transform="translate(-476 -1355.369)">
    <g id="event" transform="translate(495.81 1355.369)">
      <path id="Path_89" data-name="Path 89" d="M4.9,38.406a.83.83,0,0,1-.737-1.213l12.9-24.635a.831.831,0,0,1,1.322-.2L30.126,24.088a.83.83,0,0,1-.2,1.322L5.288,38.315a.846.846,0,0,1-.383.091ZM18.02,14.327,6.871,35.61,28.155,24.462Z" transform="translate(-2.292 1.285)" fill="#aa2ae8"/>
      <path id="Path_90" data-name="Path 90" d="M11.228,33.157a.8.8,0,0,1-.247-.038L6.345,31.671a.829.829,0,1,1,.5-1.583l4.635,1.449a.83.83,0,0,1-.249,1.621Zm5.523-2.893a.8.8,0,0,1-.247-.038L8.424,27.7a.829.829,0,1,1,.5-1.583L17,28.643a.83.83,0,0,1-.249,1.621Zm5.523-2.893a.8.8,0,0,1-.247-.038L10.5,23.732a.829.829,0,1,1,.5-1.583l11.522,3.6a.83.83,0,0,1-.249,1.621ZM27.8,24.477a.8.8,0,0,1-.247-.038L12.581,19.76a.829.829,0,1,1,.5-1.583l14.968,4.679a.83.83,0,0,1-.249,1.621Zm-5.412-6.309a.8.8,0,0,1-.247-.038L14.66,15.792a.829.829,0,1,1,.5-1.583l7.477,2.338a.83.83,0,0,1-.249,1.621Z" transform="translate(-1.179 2.64)" fill="#aa2ae8"/>
      <path id="Path_91" data-name="Path 91" d="M12.125,18.969a2.492,2.492,0,0,1-1.853-4.148,2.482,2.482,0,0,1,0-3.318,2.492,2.492,0,0,1,1.853-4.148.83.83,0,1,1,0,1.659.83.83,0,0,0,0,1.659.83.83,0,1,1,0,1.659.83.83,0,0,0,0,1.659.83.83,0,0,1,0,1.659.83.83,0,1,0,0,1.659.83.83,0,0,1,0,1.659Zm22.782,1.757A2.486,2.486,0,0,1,33.146,20a.83.83,0,0,1,1.173-1.175.83.83,0,1,0,1.173-1.175.83.83,0,1,1,1.173-1.175A.829.829,0,1,0,37.838,15.3a.83.83,0,1,1,1.173-1.175.853.853,0,0,0,1.173,0,.831.831,0,0,0,0-1.173.83.83,0,1,1,1.173-1.175,2.49,2.49,0,0,1-1.623,4.245,2.482,2.482,0,0,1-2.348,2.348A2.478,2.478,0,0,1,36.662,20a2.453,2.453,0,0,1-1.755.73ZM25.687,40.47a.829.829,0,0,1-.713-.406A2.485,2.485,0,0,1,27.6,36.353a2.486,2.486,0,0,1,2.854-1.692,2.489,2.489,0,0,1,4.514-.521.831.831,0,0,1-1.43.846.829.829,0,1,0-1.425.846.833.833,0,0,1-1.427.848.833.833,0,0,0-1.428.848.831.831,0,1,1-1.43.846.833.833,0,0,0-1.516.219.821.821,0,0,0,.091.627.828.828,0,0,1-.71,1.251ZM23.738,9.015a2.49,2.49,0,1,1,2.4-2.489A2.492,2.492,0,0,1,23.738,9.015Zm0-3.318a.831.831,0,1,0,.833.83A.831.831,0,0,0,23.738,5.7ZM37.01,9.015a2.49,2.49,0,1,1,2.4-2.489A2.492,2.492,0,0,1,37.01,9.015Zm0-3.318a.831.831,0,1,0,.833.83.831.831,0,0,0-.833-.83Zm6.636,19.908a2.489,2.489,0,1,1,2.489-2.489A2.492,2.492,0,0,1,43.646,25.605Zm0-3.318a.831.831,0,1,0,.833.83A.831.831,0,0,0,43.646,22.287ZM5.489,32.242a2.489,2.489,0,1,1,0-4.977,2.49,2.49,0,0,1,0,4.977Zm0-3.318a.831.831,0,1,0,.833.83.831.831,0,0,0-.833-.83ZM38.669,42.2a2.489,2.489,0,1,1,2.489-2.489A2.492,2.492,0,0,1,38.669,42.2Zm0-3.318a.831.831,0,1,0,.833.83A.831.831,0,0,0,38.669,38.878Z" transform="translate(-3 -4.038)" fill="#aa2ae8"/>
      <path id="Path_92" data-name="Path 92" d="M34.7,28.349a.83.83,0,0,1-.624-.282,9.12,9.12,0,0,0-12.287-1.312.829.829,0,0,1-.987-1.332,10.785,10.785,0,0,1,14.523,1.55.831.831,0,0,1-.625,1.377Zm2.343,4.972a.83.83,0,0,1-.818-.7,8.835,8.835,0,0,0-.406-1.586.83.83,0,0,1,1.566-.551,11.113,11.113,0,0,1,.479,1.875.831.831,0,0,1-.821.961ZM15.432,21.013a.83.83,0,0,1-.747-1.191,9.121,9.121,0,0,0-.3-8.546.83.83,0,1,1,1.437-.83,10.8,10.8,0,0,1,.362,10.1.83.83,0,0,1-.748.466ZM13.141,9.27a.826.826,0,0,1-.552-.211q-.341-.3-.708-.574a.831.831,0,0,1,.985-1.337q.429.317.828.674a.83.83,0,0,1-.552,1.448Zm7.927,12.4a.83.83,0,0,1-.6-1.4A12.376,12.376,0,0,0,23.9,11.69a12.514,12.514,0,0,0-1.259-5.453.83.83,0,1,1,1.49-.727,14.152,14.152,0,0,1,1.428,6.18,14.035,14.035,0,0,1-3.889,9.724A.826.826,0,0,1,21.068,21.671Z" transform="translate(2.646 -3.395)" fill="#aa2ae8"/>
      <circle id="Ellipse_92" data-name="Ellipse 92" cx="0.83" cy="0.83" r="0.83" transform="translate(8.295 16.59)" fill="#aa2ae8"/>
    </g>
    <g id="mail-setting" transform="translate(476 1381.623)">
      <path id="Path_93" data-name="Path 93" d="M1,17V55.63L28.377,31.293,1,55.63a6.718,6.718,0,0,0,6.718,6.718H71.542a6.718,6.718,0,0,0,6.718-6.718L50.884,31.293,78.261,55.63V17L39.63,37.155Z" transform="translate(0.68 -10.282)" fill="#aa2ae8" opacity="0.498"/>
      <path id="Path_95" data-name="Path 95" d="M75.581,13H63.824a1.68,1.68,0,0,0,0,3.359H75.581a1.68,1.68,0,0,1,1.68,1.68V18.7L40.31,37.979,3.359,18.7v-.662a1.68,1.68,0,0,1,1.68-1.68H16.8A1.68,1.68,0,1,0,16.8,13H5.039A5.039,5.039,0,0,0,0,18.039v40.31a8.408,8.408,0,0,0,8.4,8.4H72.222a8.408,8.408,0,0,0,8.4-8.4V18.039A5.039,5.039,0,0,0,75.581,13ZM3.359,22.49,26.128,34.368,3.359,54.608Zm68.863,40.9H8.4A5.039,5.039,0,0,1,3.43,59.041L29.312,36.03l10.22,5.333a1.688,1.688,0,0,0,1.555,0l10.22-5.333L77.19,59.041a5.039,5.039,0,0,1-4.968,4.347Zm5.039-8.779L54.492,34.368,77.261,22.49Z" transform="translate(0 -13)" fill="#aa2ae8"/>
    </g>
  </g>
</svg>
