<svg xmlns="http://www.w3.org/2000/svg" width="30" height="30" viewBox="0 0 30 30">
  <g id="dashboard" transform="translate(-8 -8)">
    <path id="Path_39" data-name="Path 39" d="M9.333,14.333a8.316,8.316,0,0,1,.254-2.943,3.333,3.333,0,0,1,1.8-1.8,8.31,8.31,0,0,1,2.942-.254h2.084a8.31,8.31,0,0,1,2.942.254,3.333,3.333,0,0,1,1.8,1.8,8.314,8.314,0,0,1,.254,2.943v2.083a8.314,8.314,0,0,1-.254,2.942,3.334,3.334,0,0,1-1.8,1.8,8.31,8.31,0,0,1-2.942.254H14.333a8.31,8.31,0,0,1-2.942-.254,3.333,3.333,0,0,1-1.8-1.8,8.314,8.314,0,0,1-.254-2.942Z" transform="translate(-0.5 -0.5)" fill="#23272d"/>
    <path id="Path_40" data-name="Path 40" d="M13.8,8h2.142C16.7,8,17.3,8,17.8,8.034a4.3,4.3,0,0,1,1.381.283,4.167,4.167,0,0,1,2.254,2.255,4.286,4.286,0,0,1,.284,1.381c.034.493.034,1.1.034,1.851v2.142c0,.751,0,1.357-.034,1.851a4.286,4.286,0,0,1-.284,1.381,4.166,4.166,0,0,1-2.254,2.254,4.286,4.286,0,0,1-1.381.284c-.493.034-1.1.034-1.851.034H13.8c-.751,0-1.357,0-1.851-.034a4.286,4.286,0,0,1-1.381-.284,4.167,4.167,0,0,1-2.255-2.254A4.3,4.3,0,0,1,8.034,17.8C8,17.3,8,16.7,8,15.947V13.8c0-.751,0-1.358.034-1.851a4.3,4.3,0,0,1,.283-1.381,4.167,4.167,0,0,1,2.255-2.255,4.3,4.3,0,0,1,1.381-.283C12.446,8,13.052,8,13.8,8ZM12.066,9.7a2.69,2.69,0,0,0-.856.161A2.5,2.5,0,0,0,9.857,11.21a2.708,2.708,0,0,0-.161.856c-.029.43-.029.979-.029,1.767v2.084c0,.787,0,1.337.029,1.767a2.69,2.69,0,0,0,.161.856,2.5,2.5,0,0,0,1.353,1.353,2.708,2.708,0,0,0,.856.161c.43.029.979.029,1.767.029h2.084c.787,0,1.337,0,1.767-.029a2.69,2.69,0,0,0,.856-.161,2.5,2.5,0,0,0,1.353-1.353,2.708,2.708,0,0,0,.161-.856c.029-.43.029-.979.029-1.767V13.833c0-.788,0-1.338-.029-1.767a2.69,2.69,0,0,0-.161-.856A2.5,2.5,0,0,0,18.54,9.857a2.708,2.708,0,0,0-.856-.161c-.43-.029-.979-.029-1.767-.029H13.833c-.788,0-1.338,0-1.767.029Z" fill="#23272d" fill-rule="evenodd"/>
    <path id="Path_41" data-name="Path 41" d="M9.333,40.333a8.316,8.316,0,0,1,.254-2.943,3.333,3.333,0,0,1,1.8-1.8,8.31,8.31,0,0,1,2.942-.254h2.084a8.31,8.31,0,0,1,2.942.254,3.333,3.333,0,0,1,1.8,1.8,8.314,8.314,0,0,1,.254,2.943v2.083a8.314,8.314,0,0,1-.254,2.942,3.334,3.334,0,0,1-1.8,1.8,8.31,8.31,0,0,1-2.942.254H14.333a8.31,8.31,0,0,1-2.942-.254,3.333,3.333,0,0,1-1.8-1.8,8.314,8.314,0,0,1-.254-2.942Z" transform="translate(-0.5 -10.25)" fill="#23272d"/>
    <path id="Path_42" data-name="Path 42" d="M13.8,34h2.142c.751,0,1.357,0,1.851.034a4.3,4.3,0,0,1,1.381.283,4.166,4.166,0,0,1,2.254,2.255,4.286,4.286,0,0,1,.284,1.381c.034.493.034,1.1.034,1.851v2.143c0,.751,0,1.357-.034,1.851a4.286,4.286,0,0,1-.284,1.381,4.166,4.166,0,0,1-2.254,2.255,4.3,4.3,0,0,1-1.381.283c-.493.034-1.1.034-1.851.034H13.8c-.751,0-1.357,0-1.851-.034a4.3,4.3,0,0,1-1.381-.283,4.167,4.167,0,0,1-2.255-2.255A4.3,4.3,0,0,1,8.034,43.8C8,43.3,8,42.7,8,41.947V39.8c0-.751,0-1.358.034-1.851a4.3,4.3,0,0,1,.283-1.381,4.167,4.167,0,0,1,2.255-2.255,4.3,4.3,0,0,1,1.381-.283C12.446,34,13.052,34,13.8,34Zm-1.737,1.7a2.69,2.69,0,0,0-.856.161A2.5,2.5,0,0,0,9.857,37.21a2.708,2.708,0,0,0-.161.856c-.029.43-.029.979-.029,1.767v2.084c0,.787,0,1.337.029,1.767a2.69,2.69,0,0,0,.161.856,2.5,2.5,0,0,0,1.353,1.353,2.707,2.707,0,0,0,.856.161c.43.029.979.029,1.767.029h2.084c.787,0,1.337,0,1.767-.029a2.69,2.69,0,0,0,.856-.161,2.5,2.5,0,0,0,1.353-1.353,2.708,2.708,0,0,0,.161-.856c.029-.43.029-.979.029-1.767V39.833c0-.787,0-1.337-.029-1.767a2.69,2.69,0,0,0-.161-.856,2.5,2.5,0,0,0-1.353-1.353,2.708,2.708,0,0,0-.856-.161c-.43-.029-.979-.029-1.767-.029H13.833c-.788,0-1.338,0-1.767.029Z" transform="translate(0 -9.75)" fill="#23272d" fill-rule="evenodd"/>
    <path id="Path_43" data-name="Path 43" d="M35.333,14.333a8.316,8.316,0,0,1,.254-2.943,3.333,3.333,0,0,1,1.8-1.8,8.31,8.31,0,0,1,2.942-.254h2.084a8.31,8.31,0,0,1,2.942.254,3.333,3.333,0,0,1,1.8,1.8,8.314,8.314,0,0,1,.254,2.943v2.083a8.314,8.314,0,0,1-.254,2.942,3.334,3.334,0,0,1-1.8,1.8,8.31,8.31,0,0,1-2.942.254H40.333a8.31,8.31,0,0,1-2.942-.254,3.334,3.334,0,0,1-1.8-1.8,8.314,8.314,0,0,1-.254-2.942Z" transform="translate(-10.25 -0.5)" fill="#23272d"/>
    <path id="Path_44" data-name="Path 44" d="M39.8,8h2.143C42.7,8,43.3,8,43.8,8.034a4.3,4.3,0,0,1,1.381.283,4.167,4.167,0,0,1,2.255,2.255,4.3,4.3,0,0,1,.283,1.381c.034.493.034,1.1.034,1.851v2.142c0,.751,0,1.357-.034,1.851a4.3,4.3,0,0,1-.283,1.381,4.166,4.166,0,0,1-2.255,2.254,4.286,4.286,0,0,1-1.381.284c-.493.034-1.1.034-1.851.034H39.8c-.751,0-1.357,0-1.851-.034a4.286,4.286,0,0,1-1.381-.284,4.166,4.166,0,0,1-2.255-2.254,4.3,4.3,0,0,1-.283-1.381C34,17.3,34,16.7,34,15.947V13.8c0-.751,0-1.358.034-1.851a4.3,4.3,0,0,1,.283-1.381,4.167,4.167,0,0,1,2.255-2.255,4.3,4.3,0,0,1,1.381-.283C38.446,8,39.052,8,39.8,8ZM38.066,9.7a2.69,2.69,0,0,0-.856.161,2.5,2.5,0,0,0-1.353,1.353,2.708,2.708,0,0,0-.161.856c-.029.43-.029.979-.029,1.767v2.084c0,.787,0,1.337.029,1.767a2.69,2.69,0,0,0,.161.856,2.5,2.5,0,0,0,1.353,1.353,2.708,2.708,0,0,0,.856.161c.43.029.979.029,1.767.029h2.084c.787,0,1.337,0,1.767-.029a2.69,2.69,0,0,0,.856-.161,2.5,2.5,0,0,0,1.353-1.353,2.707,2.707,0,0,0,.161-.856c.029-.43.029-.979.029-1.767V13.833c0-.788,0-1.338-.029-1.767a2.69,2.69,0,0,0-.161-.856A2.5,2.5,0,0,0,44.54,9.857a2.708,2.708,0,0,0-.856-.161c-.43-.029-.979-.029-1.767-.029H39.833C39.046,9.667,38.5,9.667,38.066,9.7Z" transform="translate(-9.75)" fill="#23272d" fill-rule="evenodd"/>
    <path id="Path_45" data-name="Path 45" d="M35.333,40.333a8.316,8.316,0,0,1,.254-2.943,3.333,3.333,0,0,1,1.8-1.8,8.31,8.31,0,0,1,2.942-.254h2.084a8.31,8.31,0,0,1,2.942.254,3.333,3.333,0,0,1,1.8,1.8,8.314,8.314,0,0,1,.254,2.943v2.083a8.314,8.314,0,0,1-.254,2.942,3.334,3.334,0,0,1-1.8,1.8,8.31,8.31,0,0,1-2.942.254H40.333a8.31,8.31,0,0,1-2.942-.254,3.334,3.334,0,0,1-1.8-1.8,8.314,8.314,0,0,1-.254-2.943Z" transform="translate(-10.25 -10.25)" fill="#23272d"/>
    <path id="Path_46" data-name="Path 46" d="M39.8,34h2.143c.751,0,1.357,0,1.851.034a4.3,4.3,0,0,1,1.381.283,4.166,4.166,0,0,1,2.255,2.255,4.3,4.3,0,0,1,.283,1.381c.034.493.034,1.1.034,1.851v2.143c0,.751,0,1.357-.034,1.851a4.3,4.3,0,0,1-.283,1.381,4.166,4.166,0,0,1-2.255,2.255,4.3,4.3,0,0,1-1.381.283c-.493.034-1.1.034-1.851.034H39.8c-.751,0-1.357,0-1.851-.034a4.3,4.3,0,0,1-1.381-.283,4.166,4.166,0,0,1-2.255-2.255,4.3,4.3,0,0,1-.283-1.381C34,43.3,34,42.7,34,41.947V39.8c0-.751,0-1.358.034-1.851a4.3,4.3,0,0,1,.283-1.381,4.166,4.166,0,0,1,2.255-2.255,4.3,4.3,0,0,1,1.381-.283C38.446,34,39.052,34,39.8,34Zm-1.737,1.7a2.69,2.69,0,0,0-.856.161,2.5,2.5,0,0,0-1.353,1.353,2.708,2.708,0,0,0-.161.856c-.029.43-.029.979-.029,1.767v2.084c0,.787,0,1.337.029,1.767a2.69,2.69,0,0,0,.161.856,2.5,2.5,0,0,0,1.353,1.353,2.708,2.708,0,0,0,.856.161c.43.029.979.029,1.767.029h2.084c.787,0,1.337,0,1.767-.029a2.69,2.69,0,0,0,.856-.161,2.5,2.5,0,0,0,1.353-1.353,2.708,2.708,0,0,0,.161-.856c.029-.43.029-.979.029-1.767V39.833c0-.787,0-1.337-.029-1.767a2.69,2.69,0,0,0-.161-.856,2.5,2.5,0,0,0-1.353-1.353,2.708,2.708,0,0,0-.856-.161c-.43-.029-.979-.029-1.767-.029H39.833C39.046,35.667,38.5,35.667,38.066,35.7Z" transform="translate(-9.75 -9.75)" fill="#23272d" fill-rule="evenodd"/>
  </g>
</svg>
