<svg xmlns="http://www.w3.org/2000/svg" width="32.603" height="30" viewBox="0 0 32.603 30">
  <g id="event" transform="translate(-3 -4.038)">
    <path id="Path_47" data-name="Path 47" d="M4.7,31.987a.627.627,0,0,1-.557-.917L13.9,12.45a.628.628,0,0,1,1-.152l8.867,8.867a.627.627,0,0,1-.152,1L4.992,31.918a.64.64,0,0,1-.29.069Zm9.913-18.2L6.188,29.874l16.087-8.427-7.661-7.661Z" transform="translate(0.273 2.051)" fill="#23272d"/>
    <path id="Path_48" data-name="Path 48" d="M9.893,28.521a.6.6,0,0,1-.187-.029L6.2,27.4a.627.627,0,1,1,.375-1.2l3.5,1.095a.627.627,0,0,1-.188,1.225Zm4.174-2.187a.6.6,0,0,1-.187-.029L7.774,24.4a.627.627,0,1,1,.375-1.2l6.107,1.907a.627.627,0,0,1-.188,1.225Zm4.174-2.187a.6.6,0,0,1-.187-.029L9.347,21.4a.627.627,0,1,1,.375-1.2l8.709,2.721a.627.627,0,0,1-.188,1.225Zm4.174-2.187a.6.6,0,0,1-.187-.029L10.917,18.4a.627.627,0,1,1,.375-1.2L22.6,20.736a.627.627,0,0,1-.188,1.225Zm-4.09-4.769a.6.6,0,0,1-.187-.029L12.488,15.4a.627.627,0,1,1,.375-1.2l5.652,1.767a.627.627,0,0,1-.188,1.225Z" transform="translate(0.702 2.573)" fill="#23272d"/>
    <path id="Path_49" data-name="Path 49" d="M9.9,15.324a1.883,1.883,0,0,1-1.4-3.135,1.876,1.876,0,0,1,0-2.508A1.883,1.883,0,0,1,9.9,6.546.627.627,0,0,1,9.9,7.8a.627.627,0,1,0,0,1.254.627.627,0,0,1,0,1.254.627.627,0,1,0,0,1.254.627.627,0,0,1,0,1.254.627.627,0,1,0,0,1.254.627.627,0,0,1,0,1.254Zm17.22,1.328a1.879,1.879,0,0,1-1.33-.549.627.627,0,0,1,.887-.888.627.627,0,1,0,.887-.888.627.627,0,0,1,.887-.888.627.627,0,1,0,.887-.887.627.627,0,1,1,.886-.888.645.645,0,0,0,.887,0,.628.628,0,0,0,0-.887.627.627,0,0,1,.887-.888A1.882,1.882,0,0,1,30.765,13.1a1.876,1.876,0,0,1-1.774,1.774,1.873,1.873,0,0,1-.548,1.226,1.854,1.854,0,0,1-1.327.552ZM20.148,31.575a.627.627,0,0,1-.539-.307,1.878,1.878,0,0,1,1.981-2.805,1.879,1.879,0,0,1,2.157-1.279,1.881,1.881,0,0,1,3.412-.394.628.628,0,0,1-1.081.64.626.626,0,1,0-1.077.64.629.629,0,0,1-1.078.641.629.629,0,0,0-1.08.641.628.628,0,0,1-1.081.64.629.629,0,0,0-1.146.166.621.621,0,0,0,.069.474.626.626,0,0,1-.537.945ZM18.675,7.8a1.882,1.882,0,1,1,1.814-1.881A1.883,1.883,0,0,1,18.675,7.8Zm0-2.508a.628.628,0,1,0,.629.627A.628.628,0,0,0,18.675,5.292ZM28.706,7.8A1.882,1.882,0,1,1,30.52,5.919,1.883,1.883,0,0,1,28.706,7.8Zm0-2.508a.628.628,0,1,0,.629.627.628.628,0,0,0-.629-.627ZM33.722,20.34A1.881,1.881,0,1,1,35.6,18.459,1.883,1.883,0,0,1,33.722,20.34Zm0-2.508a.628.628,0,1,0,.629.627A.628.628,0,0,0,33.722,17.832ZM4.881,25.356a1.881,1.881,0,0,1,0-3.762,1.882,1.882,0,0,1,0,3.762Zm0-2.508a.628.628,0,1,0,.629.627.628.628,0,0,0-.629-.627ZM29.96,32.879A1.881,1.881,0,1,1,31.841,31,1.883,1.883,0,0,1,29.96,32.879Zm0-2.508A.628.628,0,1,0,30.59,31a.628.628,0,0,0-.629-.627Z" transform="translate(0 0)" fill="#23272d"/>
    <path id="Path_50" data-name="Path 50" d="M29.05,22.651a.627.627,0,0,1-.471-.213,6.893,6.893,0,0,0-9.287-.992.627.627,0,1,1-.746-1.007,8.152,8.152,0,0,1,10.977,1.171.628.628,0,0,1-.473,1.041Zm1.771,3.758a.627.627,0,0,1-.618-.528,6.677,6.677,0,0,0-.307-1.2.627.627,0,1,1,1.184-.416,8.4,8.4,0,0,1,.362,1.417.628.628,0,0,1-.621.726Zm-16.332-9.3a.627.627,0,0,1-.564-.9,6.894,6.894,0,0,0-.229-6.459.627.627,0,1,1,1.086-.627,8.165,8.165,0,0,1,.273,7.634.627.627,0,0,1-.566.352ZM12.757,8.231a.624.624,0,0,1-.418-.159q-.257-.229-.535-.434a.628.628,0,0,1,.745-1.011q.325.24.626.509a.627.627,0,0,1-.418,1.095ZM18.748,17.6a.627.627,0,0,1-.455-1.06,9.355,9.355,0,0,0,2.594-6.484,9.458,9.458,0,0,0-.952-4.122.627.627,0,1,1,1.126-.549A10.653,10.653,0,0,1,19.2,17.41.624.624,0,0,1,18.748,17.6Z" transform="translate(2.176 0.248)" fill="#23272d"/>
    <circle id="Ellipse_16" data-name="Ellipse 16" cx="0.627" cy="0.627" r="0.627" transform="translate(9.27 16.578)" fill="#23272d"/>
  </g>
</svg>
