<svg xmlns="http://www.w3.org/2000/svg" width="30" height="30" viewBox="0 0 30 30">
  <path id="help" d="M19,4A15,15,0,1,0,34,19,15,15,0,0,0,19,4Zm0,24.75a1.125,1.125,0,1,1,1.125-1.125A1.125,1.125,0,0,1,19,28.75Zm3.247-9.285a5.9,5.9,0,0,0-2.5,4.785.75.75,0,1,1-1.5,0,7.4,7.4,0,0,1,3.128-6,4.132,4.132,0,0,0,1.748-3.427A4.2,4.2,0,0,0,19.06,10.75a4.125,4.125,0,0,0-4.185,4.125.75.75,0,0,1-1.5,0A5.618,5.618,0,0,1,19,9.25h.083a5.625,5.625,0,0,1,3.165,10.215Z" transform="translate(-4 -4)" fill="#23272d"/>
</svg>
