<svg id="web-support" xmlns="http://www.w3.org/2000/svg" width="47.998" height="34.284" viewBox="0 0 47.998 34.284">
  <path id="Path_35" data-name="Path 35" d="M25.428,40.284H4.857A.857.857,0,0,1,4,39.427V12.857A.857.857,0,0,1,4.857,12H51.141a.857.857,0,0,1,.857.857v10a.857.857,0,1,1-1.714,0V13.714H5.714V38.57H25.428a.857.857,0,0,1,0,1.714Z" transform="translate(-4 -12)" fill="#23272d"/>
  <path id="Path_36" data-name="Path 36" d="M51.712,17.713H17.428a.857.857,0,1,1,0-1.714H51.712a.857.857,0,0,1,0,1.714ZM14,17.713a.885.885,0,0,1-.609-.249.989.989,0,0,1-.18-.283.713.713,0,0,1-.069-.326.857.857,0,1,1,1.646.326.989.989,0,0,1-.18.283A.9.9,0,0,1,14,17.713Zm-2.571,0a.861.861,0,0,1-.609-1.466.874.874,0,0,1,.934-.18.891.891,0,0,1,.283.18.844.844,0,0,1-.283,1.4A.857.857,0,0,1,11.428,17.713Zm-2.571,0a.9.9,0,0,1-.609-.249.989.989,0,0,1-.18-.283.856.856,0,0,1,1.4-.934.9.9,0,0,1,.249.609.857.857,0,0,1-.069.326.989.989,0,0,1-.18.283A.9.9,0,0,1,8.857,17.713ZM31.142,46.855H26A.857.857,0,0,1,25.142,46V39.141A.857.857,0,0,1,26,38.284h1.431a.857.857,0,1,1,0,1.714h-.574v5.143h3.428V42.852a.857.857,0,1,1,1.714,0V46A.857.857,0,0,1,31.142,46.855Z" transform="translate(-4.572 -12.571)" fill="#23272d"/>
  <path id="Path_37" data-name="Path 37" d="M35.428,47.713H26.857a.857.857,0,1,1,0-1.714h8.571a.857.857,0,1,1,0,1.714Zm10.285-2.571H41.428a.857.857,0,0,1-.857-.857V41.748c-.225-.082-.446-.174-.661-.273l-1.794,1.792a.857.857,0,0,1-1.212,0l-3.03-3.03a.857.857,0,0,1,0-1.212l1.792-1.794q-.15-.325-.272-.661H32.857A.857.857,0,0,1,32,35.714V31.428a.857.857,0,0,1,.857-.857h2.537c.083-.225.173-.446.273-.661l-1.792-1.794a.857.857,0,0,1,0-1.212l3.03-3.03a.857.857,0,0,1,1.212,0l1.794,1.792c.214-.1.435-.19.661-.273V22.857A.857.857,0,0,1,41.428,22h4.286a.857.857,0,0,1,.857.857v2.537c.225.082.446.174.661.273l1.794-1.792a.857.857,0,0,1,1.212,0l3.03,3.03a.857.857,0,0,1,0,1.212L51.475,29.91c.1.214.189.435.272.661h2.538a.857.857,0,0,1,.857.857v4.286a.857.857,0,0,1-.857.857H51.747c-.083.225-.173.446-.273.661l1.792,1.794a.857.857,0,0,1,0,1.212l-3.03,3.03a.857.857,0,0,1-1.212,0l-1.794-1.792c-.214.1-.435.19-.661.273v2.537A.857.857,0,0,1,45.713,45.142Zm-3.428-1.714h2.571v-2.3a.857.857,0,0,1,.624-.825,6.9,6.9,0,0,0,1.5-.618A.859.859,0,0,1,48,39.823l1.627,1.627,1.818-1.817L49.823,38a.858.858,0,0,1-.142-1.023,6.958,6.958,0,0,0,.619-1.5.857.857,0,0,1,.825-.624h2.3V32.285h-2.3a.857.857,0,0,1-.824-.623,6.959,6.959,0,0,0-.619-1.5.858.858,0,0,1,.142-1.025l1.626-1.627-1.817-1.818L48,27.319a.857.857,0,0,1-1.024.141,6.9,6.9,0,0,0-1.5-.618.857.857,0,0,1-.623-.825v-2.3H42.285v2.3a.857.857,0,0,1-.624.825,6.9,6.9,0,0,0-1.5.618.86.86,0,0,1-1.025-.141L37.51,25.692l-1.818,1.817,1.626,1.628a.858.858,0,0,1,.142,1.023,6.958,6.958,0,0,0-.619,1.5.857.857,0,0,1-.825.624h-2.3v2.571h2.3a.857.857,0,0,1,.824.623,6.959,6.959,0,0,0,.619,1.5A.858.858,0,0,1,37.318,38l-1.626,1.627,1.817,1.818,1.628-1.627a.861.861,0,0,1,1.024-.141,6.9,6.9,0,0,0,1.5.618.857.857,0,0,1,.623.825Z" transform="translate(-7.144 -13.429)" fill="#23272d"/>
  <path id="Path_38" data-name="Path 38" d="M45.592,40.04a5.449,5.449,0,1,1,5.449-5.449A5.449,5.449,0,0,1,45.592,40.04Zm0-9.183a3.734,3.734,0,1,0,3.734,3.734A3.734,3.734,0,0,0,45.592,30.857Z" transform="translate(-9.165 -14.45)" fill="#23272d"/>
</svg>
